<svg width="84" height="46" viewBox="0 0 84 46" fill="none" xmlns="http://www.w3.org/2000/svg">
<path d="M17.8501 20.5339V13.9961H23.7978V20.5339H22.2991V14.8812L22.6413 15.2234H18.9948L19.337 14.8812V20.5339H17.8501Z" fill="#003399"/>
<path d="M25.4383 20.5339V13.9961H28.2705C28.8606 13.9961 29.3562 14.0905 29.7811 14.2793C30.2059 14.4681 30.5363 14.7396 30.7606 15.0936C30.9966 15.4476 31.1028 15.8725 31.1028 16.3563C31.1028 16.8519 30.9848 17.265 30.7606 17.619C30.5245 17.9731 30.2059 18.2445 29.7811 18.4333C29.3562 18.6221 28.8488 18.7283 28.2705 18.7283H26.2762L26.9724 18.0439V20.5339H25.4383ZM26.9606 18.2209L26.2643 17.501H28.1761C28.6364 17.501 28.9904 17.4066 29.2264 17.206C29.4624 17.0054 29.5804 16.7221 29.5804 16.3681C29.5804 16.0023 29.4624 15.7308 29.2264 15.5302C28.9904 15.3296 28.6364 15.2352 28.1761 15.2352H26.2643L26.9606 14.5153V18.2209Z" fill="#003399"/>
<path d="M35.3276 20.652C34.8084 20.652 34.3363 20.5694 33.8997 20.4042C33.463 20.239 33.0854 20.003 32.755 19.6962C32.4363 19.3893 32.1767 19.0353 31.9997 18.6223C31.8227 18.2092 31.7283 17.7608 31.7283 17.277C31.7283 16.7813 31.8227 16.3329 31.9997 15.9316C32.1767 15.5186 32.4245 15.1646 32.755 14.8577C33.0736 14.5509 33.463 14.3149 33.8879 14.1497C34.3245 13.9845 34.7966 13.9019 35.3158 13.9019C35.8351 13.9019 36.3071 13.9845 36.7437 14.1497C37.1804 14.3149 37.558 14.5509 37.8766 14.8577C38.1953 15.1646 38.4549 15.5186 38.6319 15.9316C38.8089 16.3447 38.9033 16.7931 38.9033 17.2887C38.9033 17.7726 38.8089 18.221 38.6319 18.6341C38.4549 19.0471 38.2071 19.4129 37.8766 19.708C37.558 20.0148 37.1686 20.2508 36.7437 20.416C36.3189 20.5694 35.8469 20.652 35.3276 20.652ZM35.3158 19.3657C35.6108 19.3657 35.8822 19.3185 36.1183 19.2123C36.3661 19.1061 36.5785 18.9645 36.7673 18.7757C36.9561 18.5869 37.0978 18.3626 37.204 18.1148C37.3102 17.867 37.3574 17.5838 37.3574 17.2652C37.3574 16.9583 37.3102 16.6751 37.204 16.4155C37.0978 16.1676 36.9561 15.9434 36.7673 15.7546C36.5785 15.5658 36.3661 15.4124 36.1183 15.318C35.8704 15.2118 35.599 15.1646 35.3158 15.1646C35.0208 15.1646 34.7494 15.2118 34.5015 15.318C34.2537 15.4242 34.0413 15.5658 33.8525 15.7546C33.6637 15.9434 33.522 16.1676 33.4276 16.4155C33.3214 16.6633 33.2742 16.9465 33.2742 17.2652C33.2742 17.572 33.3214 17.8552 33.4276 18.1148C33.5338 18.3626 33.6755 18.5869 33.8525 18.7757C34.0413 18.9645 34.2537 19.1179 34.5015 19.2123C34.7612 19.3185 35.0326 19.3657 35.3158 19.3657Z" fill="#003399"/>
<path d="M39.2927 19.9557L39.7647 18.8818C40.0362 19.047 40.3312 19.1768 40.6616 19.2594C40.9802 19.342 41.2989 19.401 41.6057 19.4128C41.9125 19.4246 42.1958 19.401 42.4436 19.3184C42.6914 19.2476 42.9038 19.1414 43.0454 18.9998C43.1988 18.8582 43.2697 18.6812 43.2697 18.4688C43.2697 18.2209 43.1634 18.0439 42.9628 17.9259C42.7622 17.8079 42.4908 17.7489 42.1486 17.7489H40.5436V16.6042H42.0187C42.3374 16.6042 42.5852 16.5452 42.7504 16.4154C42.9156 16.2856 42.9982 16.1204 42.9982 15.8961C42.9982 15.7191 42.9392 15.5657 42.8094 15.4477C42.6796 15.3297 42.5144 15.2353 42.302 15.1763C42.0895 15.1173 41.8535 15.0937 41.5821 15.1055C41.3107 15.1173 41.0393 15.1645 40.756 15.2353C40.4728 15.3179 40.1896 15.4241 39.93 15.5775L39.4579 14.4092C39.8946 14.1968 40.343 14.0434 40.815 13.9608C41.2871 13.8782 41.7355 13.8545 42.1722 13.89C42.6088 13.9254 43.01 14.0316 43.3641 14.185C43.7181 14.3384 44.0013 14.5508 44.2137 14.7986C44.4262 15.0465 44.5324 15.3533 44.5324 15.7073C44.5324 16.0141 44.4498 16.2974 44.2845 16.5334C44.1193 16.7694 43.8951 16.9582 43.6119 17.0998C43.3286 17.2415 42.9982 17.3005 42.6206 17.3005L42.6678 16.9464C43.0926 16.9464 43.4703 17.0172 43.7889 17.1706C44.1075 17.3241 44.3553 17.5247 44.5324 17.7843C44.7094 18.0439 44.8038 18.339 44.8038 18.6812C44.8038 18.988 44.7212 19.2712 44.556 19.5191C44.3907 19.7669 44.1665 19.9675 43.8833 20.1445C43.5883 20.3097 43.2696 20.4395 42.892 20.5221C42.5262 20.6048 42.1367 20.6402 41.7237 20.6284C41.3107 20.6166 40.8976 20.5576 40.4728 20.4513C40.0716 20.3451 39.6703 20.1799 39.2927 19.9557Z" fill="#003399"/>
<path d="M49.1465 20.652C48.6273 20.652 48.1552 20.5694 47.7186 20.4042C47.2819 20.239 46.9043 20.003 46.5739 19.6962C46.2553 19.3893 45.9956 19.0353 45.8186 18.6223C45.6416 18.2092 45.5472 17.7608 45.5472 17.277C45.5472 16.7813 45.6416 16.3329 45.8186 15.9316C45.9956 15.5186 46.2435 15.1646 46.5739 14.8577C46.8925 14.5509 47.2819 14.3149 47.7068 14.1497C48.1434 13.9845 48.6155 13.9019 49.1347 13.9019C49.654 13.9019 50.126 13.9845 50.5626 14.1497C50.9993 14.3149 51.3769 14.5509 51.6955 14.8577C52.0142 15.1646 52.2738 15.5186 52.4508 15.9316C52.6278 16.3447 52.7222 16.7931 52.7222 17.2887C52.7222 17.7726 52.6278 18.221 52.4508 18.6341C52.2738 19.0471 52.026 19.4129 51.6955 19.708C51.3769 20.0148 50.9875 20.2508 50.5626 20.416C50.126 20.5694 49.654 20.652 49.1465 20.652ZM49.1347 19.3657C49.4297 19.3657 49.7012 19.3185 49.9372 19.2123C50.185 19.1061 50.3974 18.9645 50.5862 18.7757C50.7751 18.5869 50.9167 18.3626 51.0229 18.1148C51.1291 17.867 51.1763 17.5838 51.1763 17.2652C51.1763 16.9583 51.1291 16.6751 51.0229 16.4155C50.9167 16.1676 50.7751 15.9434 50.5862 15.7546C50.3974 15.5658 50.185 15.4124 49.9372 15.318C49.6894 15.2118 49.4179 15.1646 49.1347 15.1646C48.8397 15.1646 48.5683 15.2118 48.3204 15.318C48.0726 15.4242 47.8602 15.5658 47.6714 15.7546C47.4826 15.9434 47.3409 16.1676 47.2465 16.4155C47.1403 16.6633 47.0931 16.9465 47.0931 17.2652C47.0931 17.572 47.1403 17.8552 47.2465 18.1148C47.3528 18.3626 47.4944 18.5869 47.6714 18.7757C47.8602 18.9645 48.0726 19.1179 48.3204 19.2123C48.5683 19.3185 48.8397 19.3657 49.1347 19.3657Z" fill="#003399"/>
<path d="M53.8787 20.5339V13.9961H56.7109C57.301 13.9961 57.7966 14.0905 58.2215 14.2793C58.6463 14.4681 58.9767 14.7396 59.2009 15.0936C59.437 15.4476 59.5432 15.8725 59.5432 16.3563C59.5432 16.8519 59.4252 17.265 59.2009 17.619C58.9649 17.9731 58.6463 18.2445 58.2215 18.4333C57.7966 18.6221 57.2892 18.7283 56.7109 18.7283H54.7165L55.4128 18.0439V20.5339H53.8787ZM55.401 18.2209L54.7047 17.501H56.6165C57.0768 17.501 57.4308 17.4066 57.6668 17.206C57.9028 17.0054 58.0208 16.7221 58.0208 16.3681C58.0208 16.0023 57.9028 15.7308 57.6668 15.5302C57.4308 15.3296 57.0768 15.2352 56.6165 15.2352H54.7047L55.401 14.5153V18.2209Z" fill="#003399"/>
<path d="M59.4844 20.5339L62.3875 13.9961H63.8862L66.8247 20.5339H65.2315L62.8241 14.7632H63.426L61.0186 20.5339H59.4844ZM60.9478 19.1295L61.3254 17.9849H64.7123L65.1017 19.1295H60.9478Z" fill="#003399"/>
<path d="M27.9519 28.4172L27.6097 28.7712V23.1067H29.1085V28.7712L28.7544 28.4172H31.5159L31.1618 28.7712V23.1067H32.6606V29.6445H24.034V23.1067H25.5327V28.7712L25.1905 28.4172H27.9519Z" fill="#003399"/>
<path d="M34.2891 29.6562V23.1184H35.7996V29.6562H34.2891ZM35.3511 27.0128V25.75H37.6288V27.0128H35.3511ZM37.8648 26.5525L36.4605 26.3873L38.5964 23.1184H40.2014L37.8648 26.5525ZM38.5256 29.6562L36.4959 26.5053L37.7232 25.7618L40.2604 29.6444H38.5256V29.6562Z" fill="#003399"/>
<path d="M44.072 29.7624C43.5528 29.7624 43.0808 29.6798 42.6441 29.5146C42.2075 29.3494 41.8299 29.1133 41.4994 28.8065C41.1808 28.4997 40.9212 28.1457 40.7442 27.7326C40.5671 27.3196 40.4727 26.8711 40.4727 26.3873C40.4727 25.8917 40.5671 25.4432 40.7442 25.042C40.9212 24.6289 41.169 24.2749 41.4994 23.9681C41.8181 23.6613 42.2075 23.4252 42.6323 23.26C43.069 23.0948 43.541 23.0122 44.0602 23.0122C44.5795 23.0122 45.0515 23.0948 45.4882 23.26C45.9248 23.4252 46.3024 23.6613 46.6211 23.9681C46.9397 24.2749 47.1993 24.6289 47.3763 25.042C47.5534 25.455 47.6478 25.9035 47.6478 26.3991C47.6478 26.8829 47.5534 27.3314 47.3763 27.7444C47.1993 28.1575 46.9515 28.5233 46.6211 28.8183C46.3024 29.1251 45.913 29.3612 45.4882 29.5264C45.0515 29.6798 44.5795 29.7624 44.072 29.7624ZM44.0602 28.4879C44.3553 28.4879 44.6267 28.4407 44.8627 28.3345C45.1105 28.2283 45.323 28.0867 45.5118 27.8978C45.7006 27.709 45.8422 27.4848 45.9484 27.237C46.0546 26.9892 46.1018 26.7059 46.1018 26.3873C46.1018 26.0805 46.0546 25.7973 45.9484 25.5376C45.8422 25.2898 45.7006 25.0656 45.5118 24.8768C45.323 24.688 45.1105 24.5345 44.8627 24.4401C44.6149 24.3339 44.3435 24.2867 44.0602 24.2867C43.7652 24.2867 43.4938 24.3339 43.246 24.4401C42.9981 24.5463 42.7857 24.688 42.5969 24.8768C42.4081 25.0656 42.2665 25.2898 42.1721 25.5376C42.0659 25.7855 42.0187 26.0687 42.0187 26.3873C42.0187 26.6941 42.0659 26.9774 42.1721 27.237C42.2783 27.4848 42.4199 27.709 42.5969 27.8978C42.7857 28.0867 42.9981 28.2401 43.246 28.3345C43.5056 28.4289 43.7652 28.4879 44.0602 28.4879Z" fill="#003399"/>
<path d="M48.6865 29.7623C48.5684 29.7623 48.4504 29.7505 48.3324 29.7387C48.2144 29.7151 48.0846 29.6915 47.943 29.6679L48.0374 28.3934C48.12 28.417 48.2144 28.4288 48.297 28.4288C48.5566 28.4288 48.7573 28.3226 48.8989 28.122C49.0405 27.9214 49.1467 27.6145 49.2057 27.2133C49.2765 26.8121 49.3119 26.34 49.3355 25.7854L49.4299 23.1301H54.4572V29.6679H52.9584V24.0152L53.3007 24.3574H50.4094L50.7162 24.0034L50.6572 25.7264C50.6336 26.3636 50.5982 26.9419 50.5274 27.4375C50.4566 27.9332 50.3504 28.358 50.2088 28.712C50.0672 29.0543 49.8666 29.3257 49.6187 29.5027C49.3827 29.6679 49.0759 29.7623 48.6865 29.7623Z" fill="#003399"/>
<path d="M55.342 29.6562L58.245 23.1184H59.7438L62.6823 29.6562H61.0891L58.6817 23.8855H59.2835L56.8761 29.6562H55.342ZM56.8171 28.2519L57.1948 27.1072H60.5817L60.9711 28.2519H56.8171Z" fill="#003399"/>
<path d="M34.0176 1.01498L35.7406 0.861572L35.7642 1.1566L35.0797 1.2156L35.2331 3.03295L34.8791 3.06836L34.7257 1.251L34.0412 1.31L34.0176 1.01498Z" fill="#BD0077"/>
<path d="M36.3895 3.76442L36.2125 0.837752L36.543 0.814156L36.5548 1.08557C36.6256 0.967561 36.7082 0.884959 36.8026 0.825954C36.897 0.766949 37.015 0.731543 37.1566 0.719742C37.3336 0.707941 37.4988 0.743347 37.6404 0.825954C37.7821 0.908561 37.9001 1.03837 37.9827 1.20358C38.0653 1.3688 38.1125 1.55762 38.1243 1.75824C38.1361 1.97066 38.1125 2.17128 38.0417 2.34829C37.9709 2.52531 37.8647 2.66692 37.7231 2.76133C37.5814 2.85574 37.428 2.91475 37.2628 2.92655C37.1448 2.93835 37.0386 2.91475 36.9324 2.86754C36.838 2.82034 36.7554 2.76133 36.6846 2.69053L36.7436 3.71721L36.3895 3.76442ZM36.6138 1.88805C36.6256 2.15947 36.6964 2.36009 36.8144 2.4781C36.9324 2.59611 37.074 2.65512 37.2274 2.65512C37.3926 2.64332 37.5224 2.57251 37.6286 2.43089C37.7349 2.28928 37.7821 2.07686 37.7585 1.79363C37.7467 1.52221 37.6758 1.3216 37.5578 1.19178C37.4398 1.06197 37.2982 1.00297 37.1448 1.01477C36.9914 1.02657 36.8616 1.09738 36.7554 1.25079C36.6374 1.4042 36.5902 1.61662 36.6138 1.88805Z" fill="#BD0077"/>
<path d="M40.0716 2.52537C39.9417 2.64338 39.8119 2.72599 39.6939 2.77319C39.5759 2.8204 39.4461 2.8558 39.3045 2.8558C39.0685 2.8676 38.8915 2.8086 38.7616 2.70239C38.6318 2.59618 38.561 2.44276 38.561 2.26574C38.561 2.15953 38.5846 2.06514 38.62 1.98253C38.6672 1.89992 38.7262 1.82911 38.7971 1.7701C38.8679 1.7111 38.9623 1.6757 39.0567 1.6403C39.1275 1.61669 39.2337 1.59309 39.3753 1.58129C39.6703 1.53409 39.8827 1.48687 40.0126 1.43967C40.0126 1.39247 40.0126 1.35707 40.0126 1.34527C40.0126 1.20366 39.9772 1.09745 39.9064 1.03845C39.8119 0.955838 39.6703 0.920432 39.4933 0.932233C39.3281 0.932233 39.1983 0.967628 39.1157 1.02663C39.0331 1.08564 38.9859 1.19186 38.9505 1.34527L38.5964 1.30986C38.62 1.15645 38.679 1.03844 38.7381 0.944031C38.8089 0.849623 38.9151 0.778814 39.0449 0.719809C39.1865 0.660803 39.3399 0.637207 39.5287 0.637207C39.7057 0.637207 39.8592 0.649011 39.9772 0.684414C40.0952 0.719817 40.1778 0.778814 40.2368 0.837819C40.2958 0.896824 40.3312 0.979432 40.3548 1.07384C40.3666 1.13285 40.3784 1.23906 40.3784 1.40428L40.3902 1.88812C40.402 2.21854 40.4138 2.43097 40.4256 2.52537C40.4492 2.60798 40.4728 2.70239 40.52 2.77319L40.1424 2.78499C40.107 2.70238 40.0834 2.61978 40.0716 2.52537ZM40.0244 1.7229C39.8946 1.7819 39.7057 1.82911 39.4461 1.87632C39.3045 1.89992 39.1983 1.92352 39.1393 1.95892C39.0803 1.98252 39.0331 2.02972 38.9977 2.07693C38.9623 2.12413 38.9505 2.18314 38.9505 2.25394C38.9505 2.34835 38.9977 2.43096 39.0685 2.48997C39.1393 2.54897 39.2455 2.58438 39.3871 2.57258C39.5287 2.57258 39.6467 2.53718 39.7529 2.46637C39.8591 2.40736 39.9418 2.31295 39.989 2.20674C40.0244 2.12413 40.0362 2.00612 40.0362 1.84091L40.0244 1.7229Z" fill="#BD0077"/>
<path d="M41.0628 0.637207H41.4168L41.405 1.52229L42.3963 1.53408L42.4081 0.649005H42.7621L42.7503 2.77319H42.3963L42.4081 1.82911L41.4168 1.81731L41.405 2.7614H41.051L41.0628 0.637207Z" fill="#BD0077"/>
<path d="M44.8038 2.04161L45.1579 2.10062C45.1107 2.34844 45.0044 2.52545 44.8392 2.66706C44.674 2.79687 44.4734 2.86768 44.2492 2.85587C43.9542 2.84407 43.7299 2.74967 43.5529 2.54905C43.3877 2.34843 43.3051 2.07701 43.3169 1.72298C43.3287 1.49876 43.3641 1.29814 43.4467 1.12113C43.5293 0.955912 43.6473 0.826106 43.8008 0.743499C43.9542 0.660891 44.1312 0.625488 44.3082 0.625488C44.5442 0.637289 44.7212 0.696292 44.8628 0.814302C45.0045 0.932313 45.0989 1.10932 45.1343 1.32174L44.7802 1.36895C44.7566 1.22733 44.6976 1.12113 44.615 1.03852C44.5324 0.955918 44.4262 0.920514 44.3082 0.920514C44.1312 0.920514 43.9778 0.97952 43.8598 1.09753C43.7417 1.22734 43.6827 1.42795 43.6709 1.71118C43.6591 1.9944 43.7063 2.20683 43.8126 2.33664C43.9188 2.46645 44.0604 2.53725 44.2374 2.53725C44.379 2.53725 44.497 2.50185 44.5914 2.41924C44.7094 2.34844 44.7684 2.21863 44.8038 2.04161Z" fill="#BD0077"/>
<path d="M46.9398 0L47.2938 0.0235963L47.223 1.0385C47.3056 0.95589 47.3882 0.896885 47.4826 0.861482C47.577 0.826079 47.6714 0.814275 47.7776 0.814275C48.0255 0.826076 48.2261 0.944087 48.3559 1.16831C48.4857 1.39253 48.5447 1.65214 48.5211 1.97077C48.4975 2.3012 48.4031 2.56083 48.2261 2.76145C48.0491 2.95026 47.8484 3.04466 47.6124 3.03286C47.5298 3.03286 47.459 3.00927 47.3764 2.98567C47.2938 2.96207 47.2112 2.87946 47.105 2.77325L47.0342 3.76454L46.6801 3.74093L46.7509 2.74965C46.6801 2.82046 46.5857 2.87945 46.5031 2.90305C46.4087 2.93846 46.3143 2.95026 46.2199 2.93846C45.9957 2.92666 45.8069 2.80865 45.6534 2.60803C45.5 2.40741 45.441 2.11239 45.4646 1.75836C45.4882 1.45153 45.5826 1.20371 45.736 1.00309C45.9013 0.802471 46.1137 0.719858 46.3615 0.731659C46.4677 0.74346 46.5621 0.767071 46.6447 0.814275C46.7273 0.861479 46.7981 0.93228 46.869 1.01489L46.9398 0ZM45.8305 1.77016C45.8069 2.06518 45.8423 2.2894 45.9367 2.43101C46.0311 2.57263 46.1491 2.64343 46.3025 2.65524C46.4559 2.66704 46.5739 2.60803 46.6683 2.47822C46.7509 2.34841 46.8099 2.15959 46.8217 1.89997C46.8453 1.61674 46.8099 1.40432 46.7391 1.26271C46.6683 1.12109 46.5503 1.03849 46.3851 1.02669C46.2317 1.01488 46.1137 1.07389 46.0075 1.2037C45.9131 1.33351 45.8541 1.52233 45.8305 1.77016ZM47.1758 1.88817C47.1522 2.2068 47.1876 2.41921 47.2702 2.53723C47.3528 2.65524 47.459 2.71424 47.5888 2.72604C47.7304 2.73784 47.8602 2.67883 47.9782 2.54902C48.0845 2.41921 48.1553 2.2186 48.1789 1.93537C48.2025 1.66395 48.1671 1.46332 48.0727 1.32171C47.9782 1.1801 47.872 1.1093 47.7186 1.0975C47.5534 1.0857 47.4354 1.14471 47.341 1.27452C47.2466 1.40433 47.1876 1.61674 47.1758 1.88817Z" fill="#BD0077"/>
<path d="M48.9223 2.01792C48.9577 1.62848 49.0993 1.34526 49.3354 1.18005C49.536 1.03843 49.7602 0.991226 50.0198 1.01483C50.3149 1.05023 50.5391 1.16824 50.7043 1.36886C50.8695 1.58128 50.9285 1.85271 50.8931 2.18313C50.8695 2.45456 50.7987 2.66698 50.7043 2.8086C50.6099 2.95021 50.4801 3.06821 50.3149 3.13902C50.1496 3.20982 49.9726 3.23342 49.7956 3.20982C49.5006 3.17442 49.2764 3.05641 49.1112 2.85579C48.9459 2.65517 48.8869 2.37195 48.9223 2.01792ZM49.2882 2.05333C49.2646 2.32475 49.3 2.53716 49.4062 2.67877C49.5124 2.82039 49.654 2.903 49.831 2.92661C50.008 2.95021 50.1614 2.8912 50.2913 2.77319C50.4211 2.65518 50.5037 2.45456 50.5273 2.17134C50.5509 1.91171 50.5155 1.71109 50.4093 1.55767C50.3031 1.41606 50.1614 1.33346 49.9844 1.30985C49.8074 1.28625 49.654 1.34526 49.5124 1.46327C49.4062 1.59309 49.3236 1.7819 49.2882 2.05333Z" fill="#BD0077"/>
<path d="M51.1764 4.14207L51.5776 1.23901L51.908 1.28622L51.8726 1.55764C51.967 1.46323 52.0614 1.39243 52.1676 1.35702C52.2739 1.32162 52.3919 1.30981 52.5335 1.32162C52.7105 1.34522 52.8639 1.41603 52.9937 1.52224C53.1235 1.62845 53.2061 1.78186 53.2534 1.95887C53.3006 2.13589 53.3123 2.32471 53.2769 2.52533C53.2533 2.73775 53.1825 2.92656 53.0763 3.09177C52.9701 3.25699 52.8403 3.375 52.6869 3.4458C52.5217 3.51661 52.3683 3.54022 52.2031 3.51662C52.085 3.50482 51.9788 3.45762 51.8962 3.39861C51.8136 3.33961 51.7428 3.257 51.6838 3.17439L51.5422 4.20107L51.1764 4.14207ZM51.7546 2.34831C51.7192 2.61974 51.7428 2.82035 51.8372 2.97376C51.9316 3.11537 52.0496 3.19799 52.2031 3.2216C52.3565 3.2452 52.5099 3.19798 52.6397 3.07997C52.7695 2.96196 52.8521 2.76135 52.8993 2.47812C52.9347 2.2067 52.9111 2.00608 52.8167 1.85266C52.7223 1.69925 52.6043 1.61665 52.4509 1.59305C52.2975 1.56944 52.1559 1.62845 52.0142 1.74646C51.8726 1.87628 51.79 2.07689 51.7546 2.34831Z" fill="#BD0077"/>
<path d="M53.997 1.5813L54.5516 1.6757L54.8113 3.44586L55.7199 1.87632L56.2274 1.97072L55.8616 4.05952L55.5075 4.00051L55.8025 2.31296L54.8939 3.8825L54.5752 3.8235L54.3038 1.95893L53.997 3.71729L53.6548 3.65828L53.997 1.5813Z" fill="#BD0077"/>
<path d="M57.8676 4.22484C57.7141 4.30745 57.5725 4.35465 57.4427 4.37825C57.3129 4.40185 57.1831 4.39005 57.0415 4.36645C56.8173 4.31925 56.652 4.22483 56.5576 4.08322C56.4632 3.94161 56.4278 3.7882 56.4632 3.61118C56.4868 3.50497 56.534 3.42237 56.593 3.35156C56.652 3.28076 56.7347 3.22175 56.8173 3.18635C56.8999 3.15094 56.9943 3.12734 57.1005 3.12734C57.1713 3.12734 57.2775 3.12734 57.4191 3.13914C57.7141 3.16274 57.9266 3.17454 58.0682 3.15094C58.08 3.10373 58.0918 3.06834 58.0918 3.05654C58.1272 2.91492 58.1154 2.80871 58.0564 2.7379C57.9856 2.64349 57.8558 2.57269 57.6787 2.53729C57.5135 2.50188 57.3837 2.50188 57.2893 2.54909C57.1949 2.58449 57.1123 2.6789 57.0533 2.82052L56.7229 2.70251C56.7819 2.56089 56.8645 2.45467 56.9589 2.38387C57.0533 2.31306 57.1713 2.26586 57.3129 2.24226C57.4545 2.21866 57.6197 2.23045 57.7968 2.26586C57.9738 2.30126 58.1154 2.36027 58.2098 2.41928C58.316 2.49008 58.3868 2.5609 58.4222 2.6317C58.4576 2.70251 58.4812 2.79691 58.4812 2.89132C58.4812 2.95032 58.4576 3.06834 58.434 3.22175L58.3278 3.6938C58.257 4.02422 58.2216 4.22483 58.2098 4.31924C58.2098 4.41365 58.2216 4.49626 58.2452 4.59067L57.8794 4.50806C57.8676 4.41365 57.8558 4.31925 57.8676 4.22484ZM58.0092 3.43416C57.8675 3.45777 57.6669 3.45776 57.4073 3.44596C57.2539 3.43416 57.1477 3.43416 57.0887 3.44596C57.0179 3.45776 56.9707 3.48137 56.9235 3.52858C56.8763 3.57578 56.8527 3.62298 56.8409 3.68198C56.8173 3.77639 56.8409 3.85901 56.8999 3.94161C56.9589 4.02422 57.0533 4.07143 57.1949 4.10683C57.3247 4.13043 57.4545 4.13042 57.5725 4.09502C57.6905 4.05962 57.7849 3.98881 57.8558 3.90621C57.9148 3.8354 57.9502 3.71739 57.9856 3.56397L58.0092 3.43416Z" fill="#BD0077"/>
<path d="M59.2837 2.64355L59.6378 2.73795L59.1775 4.50811L60.1452 4.75594L60.6055 2.98579L60.9595 3.08019L60.4993 4.85034L60.7235 4.90935L60.4993 5.78263L60.216 5.71183L60.3694 5.13357L58.7763 4.72054L59.2837 2.64355Z" fill="#BD0077"/>
<path d="M61.1011 5.31036L61.6911 3.26878L62.0333 3.36319L61.4433 5.40478L61.1011 5.31036ZM61.7973 2.90295L61.9153 2.50171L62.2575 2.59612L62.1395 2.99736L61.7973 2.90295Z" fill="#BD0077"/>
<path d="M64.2874 4.08323L63.6384 6.10121L63.2961 5.99501L63.544 5.20433L63.3433 5.14532C63.2253 5.10992 63.1309 5.09813 63.0601 5.10993C62.9893 5.12173 62.8713 5.19253 62.7061 5.32234L62.2694 5.66457L61.8446 5.52297L62.3875 5.09812C62.5527 4.9683 62.6943 4.9093 62.8123 4.9211C62.6235 4.82669 62.5055 4.72048 62.4465 4.56707C62.3875 4.42546 62.3874 4.27205 62.4346 4.13044C62.4937 3.95342 62.5999 3.83541 62.7533 3.76461C62.9067 3.6938 63.1073 3.6938 63.3433 3.7764L64.2874 4.08323ZM63.8626 4.26024L63.3787 4.10684C63.1781 4.03603 63.0365 4.03603 62.9539 4.07143C62.8713 4.11864 62.8241 4.17764 62.7887 4.26024C62.7533 4.37826 62.7651 4.48446 62.8359 4.56707C62.9067 4.64968 63.0483 4.73228 63.2725 4.80309L63.6502 4.9211L63.8626 4.26024Z" fill="#BD0077"/>
<path d="M66.8012 6.13648C66.9546 5.77064 67.167 5.54643 67.4502 5.46382C67.6745 5.39302 67.9105 5.40481 68.1583 5.51102C68.4297 5.62903 68.6068 5.80605 68.7012 6.05388C68.7956 6.3017 68.772 6.58492 68.6422 6.89175C68.5359 7.13957 68.4061 7.32838 68.2763 7.43459C68.1347 7.5408 67.9813 7.61161 67.8043 7.62341C67.6273 7.64701 67.4502 7.61161 67.285 7.5408C67.0136 7.42279 66.8248 7.24578 66.7304 6.99796C66.636 6.75014 66.6596 6.46691 66.8012 6.13648ZM67.1434 6.27808C67.0372 6.52591 67.0136 6.73833 67.0608 6.90355C67.108 7.06876 67.226 7.19857 67.3912 7.26937C67.5564 7.34018 67.7217 7.34018 67.8869 7.25758C68.0521 7.17497 68.1819 7.00976 68.2999 6.76194C68.4061 6.52592 68.4297 6.31349 68.3707 6.14828C68.3117 5.97126 68.2055 5.85325 68.0403 5.78245C67.8751 5.71164 67.7099 5.71164 67.5447 5.79424C67.3794 5.86505 67.2496 6.03026 67.1434 6.27808Z" fill="#BD0077"/>
<path d="M70.2351 8.02472L70.5302 8.22533C70.3886 8.42595 70.2115 8.55577 70.0109 8.60297C69.8103 8.65018 69.5979 8.62658 69.3973 8.53217C69.1376 8.40236 68.9724 8.21353 68.9016 7.96571C68.8308 7.71789 68.8662 7.43467 69.0314 7.11604C69.1376 6.91543 69.2557 6.7502 69.3973 6.63219C69.5389 6.51418 69.7041 6.44337 69.8811 6.44337C70.0581 6.43157 70.2233 6.46698 70.3886 6.54959C70.601 6.6558 70.7426 6.78561 70.8134 6.96262C70.896 7.12784 70.9078 7.31666 70.8488 7.52908L70.5066 7.42287C70.542 7.28125 70.5302 7.16325 70.4948 7.05704C70.4476 6.95083 70.3768 6.88002 70.2705 6.82102C70.1053 6.73841 69.9519 6.7384 69.7867 6.79741C69.6333 6.86821 69.4799 7.02163 69.3619 7.26945C69.2321 7.52907 69.1967 7.72969 69.2321 7.89491C69.2675 8.06012 69.3737 8.17813 69.5271 8.26074C69.6569 8.31974 69.7749 8.33155 69.9047 8.29615C70.0227 8.26074 70.1289 8.17813 70.2351 8.02472Z" fill="#BD0077"/>
<path d="M71.5803 7.21045L72.3002 7.62349C72.4772 7.7297 72.5952 7.81231 72.666 7.89492C72.7368 7.97752 72.784 8.07193 72.7958 8.17814C72.8076 8.29615 72.7958 8.40235 72.725 8.50856C72.6778 8.59117 72.607 8.66199 72.5362 8.70919C72.4654 8.75639 72.371 8.77999 72.2766 8.77999C72.3474 8.8626 72.3828 8.95701 72.3946 9.06322C72.4064 9.18123 72.3828 9.28743 72.3238 9.39364C72.2176 9.55886 72.0759 9.65327 71.9107 9.67687C71.7455 9.70047 71.5567 9.64146 71.3443 9.52345L70.5182 9.05141L71.5803 7.21045ZM70.9902 8.98061L71.4033 9.21663C71.5803 9.32284 71.7101 9.37005 71.8045 9.35825C71.8989 9.35825 71.9697 9.29924 72.0287 9.20483C72.0641 9.14582 72.076 9.07502 72.0642 9.00422C72.0524 8.93341 72.0287 8.87441 71.9697 8.8272C71.9107 8.78 71.8163 8.72098 71.6865 8.63837L71.3089 8.42596L70.9902 8.98061ZM71.4505 8.16633L71.7809 8.35516C71.9107 8.42597 72.0051 8.47317 72.0642 8.48497C72.1232 8.49677 72.1822 8.49677 72.2412 8.47317C72.3002 8.44957 72.3474 8.41416 72.3828 8.35516C72.4418 8.26075 72.4418 8.16633 72.3946 8.09553C72.3474 8.01292 72.2412 7.93032 72.076 7.83591L71.7337 7.63528L71.4505 8.16633Z" fill="#BD0077"/>
<path d="M72.4655 10.196L73.6102 8.40223L73.9171 8.59105L72.7724 10.3848L72.4655 10.196ZM73.8227 8.0718L74.0469 7.71777L74.3537 7.90659L74.1295 8.26062L73.8227 8.0718Z" fill="#BD0077"/>
<path d="M74.3537 8.87427L75.7581 9.86556L75.5811 10.1134L75.0264 9.72395L73.9761 11.2109L73.6811 10.9985L74.7314 9.51153L74.1767 9.1221L74.3537 8.87427Z" fill="#BD0077"/>
<path d="M76.2065 10.208L76.4779 10.444L75.9114 11.1167L76.6785 11.7539L77.245 11.0813L77.5164 11.3173L76.1593 12.9458L75.8878 12.7098L76.4897 11.99L75.7226 11.3527L75.1208 12.0726L74.8494 11.8366L76.2065 10.208Z" fill="#BD0077"/>
<path d="M78.0945 11.8364L78.3423 12.096L77.7523 12.6743L78.0709 13.0047C78.2833 13.2171 78.4013 13.4178 78.4249 13.6184C78.4485 13.819 78.4013 13.9842 78.2479 14.1258C78.1181 14.2438 77.9647 14.3028 77.7877 14.3028C77.5989 14.291 77.4101 14.1848 77.2094 13.9724L76.584 13.3234L78.0945 11.8364ZM77.0442 13.3706L77.3038 13.642C77.4573 13.8072 77.5989 13.9016 77.7051 13.937C77.8113 13.9724 77.9057 13.937 78.0001 13.8544C78.0709 13.7954 78.0945 13.7128 78.1063 13.6066C78.1063 13.5004 78.0237 13.3706 77.8467 13.1935L77.5517 12.8867L77.0442 13.3706Z" fill="#BD0077"/>
<path d="M78.8263 14.1376C79.1449 13.9016 79.4399 13.8072 79.7231 13.878C79.9592 13.9252 80.1598 14.055 80.3132 14.2674C80.4902 14.5034 80.561 14.7513 80.5138 15.0109C80.4784 15.2705 80.3132 15.5065 80.0536 15.7071C79.8412 15.8724 79.6405 15.9668 79.4635 16.0022C79.2865 16.0258 79.1213 16.014 78.9561 15.9314C78.7909 15.8606 78.661 15.7425 78.543 15.6009C78.366 15.3649 78.2952 15.1171 78.3424 14.8575C78.3778 14.586 78.543 14.35 78.8263 14.1376ZM79.0505 14.4326C78.8381 14.5978 78.7083 14.7631 78.6729 14.9401C78.6375 15.1171 78.6728 15.2705 78.7791 15.4239C78.8853 15.5655 79.0269 15.6481 79.2157 15.6599C79.3927 15.6717 79.5933 15.6009 79.8176 15.4239C80.03 15.2705 80.148 15.0935 80.1834 14.9165C80.2188 14.7395 80.1834 14.586 80.0772 14.4444C79.971 14.3028 79.8294 14.2202 79.6523 14.2084C79.4635 14.1966 79.2629 14.2674 79.0505 14.4326Z" fill="#BD0077"/>
<path d="M81.2335 15.6953L81.8353 16.7574L81.5757 16.899L81.1509 16.1556L79.5695 17.0524L79.3925 16.7456L81.2335 15.6953Z" fill="#BD0077"/>
<path d="M81.0212 17.4538C81.387 17.3122 81.6938 17.3004 81.9535 17.442C82.1659 17.5601 82.3193 17.7371 82.4137 17.9731C82.5199 18.2445 82.5199 18.5041 82.4019 18.7402C82.2957 18.988 82.0833 19.165 81.7646 19.283C81.505 19.3774 81.2926 19.4246 81.1156 19.401C80.9386 19.3774 80.7852 19.3184 80.6435 19.2004C80.5019 19.0824 80.4075 18.9408 80.3367 18.7756C80.2305 18.5041 80.2305 18.2445 80.3367 17.9967C80.4429 17.7489 80.6907 17.5837 81.0212 17.4538ZM81.1628 17.7961C80.915 17.8905 80.738 18.0203 80.6553 18.1855C80.5727 18.3507 80.5609 18.5041 80.6317 18.6812C80.7026 18.8464 80.8088 18.9644 80.9858 19.0234C81.151 19.0824 81.3752 19.0588 81.6348 18.9644C81.8827 18.87 82.0479 18.7402 82.1305 18.5749C82.2131 18.4097 82.2249 18.2563 82.1541 18.0911C82.0833 17.9259 81.9771 17.8079 81.8001 17.7489C81.623 17.6781 81.4106 17.7017 81.1628 17.7961Z" fill="#BD0077"/>
<path d="M81.8947 23.7791L81.8356 24.1331C81.5996 24.0859 81.4108 23.9797 81.281 23.8145C81.1512 23.6493 81.0922 23.4486 81.104 23.2244C81.1158 22.9294 81.222 22.7052 81.4226 22.54C81.6232 22.3747 81.8947 22.2921 82.2487 22.3157C82.4729 22.3275 82.6735 22.3747 82.8505 22.4574C83.0157 22.54 83.1456 22.658 83.2164 22.8232C83.299 22.9766 83.3344 23.1536 83.3226 23.3306C83.3108 23.5548 83.24 23.7437 83.122 23.8853C83.004 24.0269 82.8269 24.1095 82.6145 24.1449L82.5791 23.7909C82.7207 23.7673 82.8387 23.7083 82.9095 23.6256C82.9803 23.543 83.0275 23.4486 83.0275 23.3188C83.0394 23.1418 82.9803 22.9884 82.8505 22.8704C82.7207 22.7524 82.5201 22.6816 82.2369 22.6698C81.9537 22.658 81.7412 22.7052 81.6114 22.8114C81.4816 22.9176 81.4108 23.0592 81.399 23.2244C81.3872 23.366 81.4344 23.484 81.517 23.5785C81.576 23.6847 81.7176 23.7555 81.8947 23.7791Z" fill="#BD0077"/>
<path d="M81.3516 25.9386L81.2218 26.2926C81.0212 26.1864 80.8914 26.033 80.8088 25.856C80.7262 25.6672 80.7262 25.4666 80.7852 25.2187C80.856 24.9119 81.0094 24.6995 81.2454 24.5697C81.4696 24.4399 81.7529 24.4163 82.0951 24.4989C82.4373 24.5815 82.6851 24.7467 82.8386 24.9709C82.992 25.1951 83.0274 25.4548 82.9448 25.738C82.874 26.0094 82.7205 26.21 82.4963 26.3398C82.2603 26.4696 81.9771 26.4814 81.6349 26.3988C81.6113 26.3988 81.5877 26.387 81.5404 26.3752L81.9299 24.8411C81.7057 24.7939 81.5168 24.8175 81.3634 24.9001C81.21 24.9827 81.1156 25.1125 81.0802 25.2896C81.0448 25.4194 81.0566 25.5374 81.1038 25.6436C81.1274 25.7498 81.2218 25.856 81.3516 25.9386ZM82.2013 24.9355L81.9063 26.0802C82.0833 26.1038 82.2249 26.092 82.3311 26.0448C82.4963 25.9622 82.6025 25.8442 82.638 25.6672C82.6734 25.502 82.6616 25.3603 82.5789 25.2187C82.5081 25.0889 82.3783 24.9945 82.2013 24.9355Z" fill="#BD0077"/>
<path d="M79.7114 26.1748L82.3666 27.4257L82.225 27.7207L81.9772 27.6027C82.0362 27.7207 82.0716 27.827 82.0834 27.945C82.0952 28.0512 82.0598 28.1692 82.0008 28.299C81.9182 28.4642 81.812 28.5822 81.6704 28.6766C81.5287 28.7592 81.3635 28.7946 81.1747 28.7946C80.9859 28.7828 80.8089 28.7356 80.6201 28.653C80.4195 28.5586 80.266 28.4406 80.1362 28.299C80.0182 28.1574 79.9356 27.9922 79.9238 27.8151C79.9002 27.6381 79.9238 27.4847 79.9946 27.3313C80.0418 27.2251 80.1126 27.1307 80.207 27.0717C80.2896 27.0127 80.384 26.9655 80.4784 26.9419L79.5462 26.5052L79.7114 26.1748ZM81.2573 27.2723C81.0095 27.1543 80.8089 27.1189 80.6437 27.1661C80.4785 27.2133 80.3604 27.3077 80.2896 27.4493C80.2188 27.5909 80.2188 27.7443 80.3014 27.9096C80.3722 28.0748 80.5375 28.2164 80.7971 28.3344C81.0449 28.4524 81.2455 28.4878 81.4225 28.4406C81.5877 28.3934 81.7058 28.3108 81.7766 28.1692C81.8474 28.0276 81.8356 27.8742 81.753 27.7089C81.6586 27.5319 81.4933 27.3903 81.2573 27.2723Z" fill="#BD0077"/>
<path d="M79.1567 30.1281L78.9089 30.4113C78.7673 30.2343 78.6847 30.0573 78.6847 29.8566C78.6729 29.656 78.7437 29.4554 78.8853 29.2548C79.0623 28.9952 79.2865 28.8536 79.5461 28.8064C79.8058 28.7709 80.0772 28.8418 80.3604 29.0424C80.6554 29.243 80.8325 29.479 80.8797 29.7386C80.9269 29.9983 80.8797 30.2579 80.7144 30.4939C80.5492 30.7299 80.3368 30.8597 80.0772 30.8951C79.8176 30.9305 79.5461 30.8479 79.2511 30.6473C79.2393 30.6355 79.2039 30.6119 79.1685 30.5883L80.0772 29.2902C79.8766 29.1722 79.6996 29.125 79.5225 29.1486C79.3573 29.1722 79.2157 29.2666 79.1213 29.4082C79.0505 29.5144 79.0151 29.6324 79.0151 29.7504C79.0151 29.8802 79.0741 29.9983 79.1567 30.1281ZM80.3132 29.4908L79.6405 30.4585C79.794 30.5529 79.9356 30.5883 80.0536 30.5765C80.2306 30.5647 80.3722 30.4821 80.4784 30.3287C80.5728 30.1989 80.6082 30.0455 80.5846 29.8921C80.5492 29.7386 80.4548 29.6088 80.3132 29.4908Z" fill="#BD0077"/>
<path d="M79.5224 31.969L78.5193 33.0547L77.174 31.8156L77.0206 31.9808L76.3597 31.379L76.5604 31.1665L77.0088 31.5678L78.1417 30.3405L77.6933 29.9392L77.8939 29.7268L78.5548 30.3287L78.4249 30.4703C78.5075 30.8951 78.8734 31.3908 79.5224 31.969ZM79.0976 31.9926C78.602 31.5088 78.3069 31.0839 78.1889 30.7299L77.4218 31.5678L78.5548 32.5945L79.0976 31.9926Z" fill="#BD0077"/>
<path d="M77.2921 32.7951C77.5517 33.0902 77.6579 33.3852 77.6225 33.6684C77.5871 33.9044 77.4691 34.1169 77.2685 34.2821C77.0443 34.4709 76.8082 34.5535 76.5368 34.5299C76.2772 34.5063 76.0294 34.3647 75.8052 34.1168C75.6281 33.9162 75.5101 33.7274 75.4747 33.5504C75.4393 33.3734 75.4393 33.2082 75.5101 33.043C75.5691 32.8777 75.6753 32.7361 75.817 32.6063C76.0412 32.4057 76.289 32.3231 76.5486 32.3467C76.8082 32.3703 77.0561 32.5237 77.2921 32.7951ZM77.0207 33.0312C76.8437 32.8305 76.6666 32.7125 76.4896 32.6889C76.3126 32.6653 76.1592 32.7125 76.0176 32.8305C75.8878 32.9485 75.817 33.102 75.817 33.279C75.817 33.456 75.9114 33.6566 76.0884 33.869C76.2654 34.0696 76.4306 34.1759 76.6194 34.1995C76.7964 34.2231 76.9499 34.1759 77.0915 34.0578C77.2213 33.9398 77.2921 33.7864 77.2921 33.6094C77.2803 33.4324 77.1977 33.2436 77.0207 33.0312Z" fill="#BD0077"/>
<path d="M75.9704 35.2969L75.2977 35.7808C75.1325 35.8988 75.0027 35.9696 74.8965 36.005C74.7903 36.0404 74.6958 36.0404 74.5778 36.005C74.4716 35.9696 74.3772 35.9106 74.2946 35.8044C74.2356 35.7218 74.2002 35.6392 74.1884 35.5565C74.1766 35.4739 74.1884 35.3795 74.2356 35.2969C74.1294 35.3323 74.035 35.3323 73.9288 35.2969C73.8226 35.2615 73.7282 35.1907 73.6574 35.0963C73.5512 34.9311 73.5157 34.7659 73.5747 34.6125C73.622 34.4591 73.7518 34.3056 73.9524 34.164L74.7313 33.6094L75.9704 35.2969ZM74.6014 34.0224L74.212 34.3056C74.0468 34.4236 73.9524 34.5299 73.917 34.6125C73.8816 34.6951 73.8934 34.7895 73.9642 34.8839C73.9996 34.9429 74.0586 34.9783 74.1294 35.0019C74.2002 35.0255 74.271 35.0137 74.33 34.9901C74.389 34.9665 74.4952 34.8957 74.6132 34.8131L74.9673 34.5535L74.6014 34.0224ZM75.1561 34.7895L74.8493 35.0137C74.7195 35.1081 74.6486 35.1671 74.6132 35.2143C74.5778 35.2615 74.5542 35.3205 74.5424 35.3795C74.5306 35.4503 74.5542 35.5093 74.5896 35.5565C74.6604 35.651 74.7312 35.6864 74.8257 35.6746C74.9201 35.6628 75.0381 35.6037 75.1915 35.4857L75.5101 35.2497L75.1561 34.7895Z" fill="#BD0077"/>
<path d="M74.0234 36.6659L73.7166 36.8547L72.8669 35.474V37.374L72.5365 37.5746L71.4272 35.769L71.734 35.5802L72.5719 36.9491L72.5836 35.061L72.9141 34.8604L74.0234 36.6659Z" fill="#BD0077"/>
<path d="M71.8634 37.9757L71.5448 38.1409L70.7187 36.5123L69.9871 36.8782L70.8131 38.5067L70.4945 38.6719L69.6685 37.0434L68.9368 37.4092L69.7629 39.0378L69.4442 39.203L68.6182 37.5744L68.4057 37.6806L68.0045 36.8782L68.2759 36.7484L68.5474 37.2794L70.9194 36.0757L71.8634 37.9757Z" fill="#BD0077"/>
<path d="M66.683 38.3652C66.7656 38.2118 66.8482 38.082 66.9426 37.9994C67.037 37.905 67.155 37.8342 67.2849 37.7752C67.4973 37.6808 67.6861 37.669 67.8513 37.728C68.0165 37.787 68.1227 37.8932 68.1935 38.0584C68.2289 38.1528 68.2525 38.2472 68.2407 38.3534C68.2289 38.4478 68.2053 38.5422 68.1463 38.613C68.0991 38.6956 68.0283 38.7547 67.9575 38.8255C67.8985 38.8727 67.8041 38.9317 67.6861 39.0025C67.4265 39.1441 67.2494 39.2739 67.1432 39.3683C67.1668 39.4155 67.1668 39.4391 67.1786 39.4509C67.2376 39.5807 67.3084 39.6633 67.3911 39.6987C67.5091 39.7341 67.6507 39.7223 67.8159 39.6515C67.9693 39.5807 68.0755 39.5099 68.1227 39.4273C68.1699 39.3447 68.1935 39.2267 68.1699 39.0733L68.5122 38.9789C68.5358 39.1323 68.5358 39.2621 68.5122 39.3801C68.4768 39.4981 68.406 39.6043 68.2997 39.6987C68.1935 39.7932 68.0519 39.8876 67.8867 39.9584C67.7215 40.0292 67.5799 40.0646 67.4501 40.0764C67.332 40.0764 67.2376 40.0646 67.155 40.0292C67.0842 39.9938 67.0134 39.9348 66.9544 39.8521C66.919 39.8049 66.8718 39.6987 66.8128 39.5571L66.624 39.1205C66.4942 38.8137 66.3998 38.6248 66.3526 38.5422C66.3054 38.4714 66.2464 38.4006 66.1638 38.3416L66.506 38.2C66.5768 38.2 66.6358 38.2708 66.683 38.3652ZM67.0252 39.0851C67.1196 38.9907 67.2848 38.8727 67.5091 38.731C67.6389 38.6484 67.7215 38.5894 67.7687 38.5422C67.8159 38.495 67.8395 38.436 67.8513 38.377C67.8631 38.318 67.8513 38.259 67.8277 38.2C67.7923 38.1174 67.7215 38.0466 67.6389 38.023C67.5445 37.9876 67.4383 37.9994 67.3085 38.0584C67.1786 38.1174 67.0842 38.1882 67.0016 38.2826C66.9308 38.377 66.8836 38.4832 66.8836 38.6012C66.8836 38.6956 66.9072 38.8137 66.9662 38.9553L67.0252 39.0851Z" fill="#BD0077"/>
<path d="M48.9345 44.3601L47.2116 44.4899L47.188 44.1949L47.8725 44.1359L47.7308 42.3185L48.0849 42.2949L48.2265 44.1123L48.9109 44.0533L48.9345 44.3601Z" fill="#BD0077"/>
<path d="M46.586 41.5989L46.7395 44.5255L46.409 44.5373L46.3972 44.2659C46.3264 44.3721 46.2438 44.4665 46.1494 44.5255C46.055 44.5845 45.937 44.6199 45.7954 44.6199C45.6184 44.6317 45.4531 44.5963 45.3115 44.5019C45.1699 44.4075 45.0519 44.2895 44.9811 44.1243C44.8985 43.9591 44.8631 43.7703 44.8513 43.5696C44.8395 43.3572 44.8749 43.1566 44.9339 42.9796C45.0047 42.8026 45.1109 42.661 45.2525 42.5666C45.3941 42.4721 45.5476 42.4132 45.7128 42.4014C45.8308 42.3896 45.937 42.4132 46.0432 42.4604C46.1376 42.5076 46.2202 42.5666 46.291 42.6374L46.2438 41.6107L46.586 41.5989ZM46.3618 43.4752C46.35 43.2038 46.2792 43.0032 46.1612 42.8734C46.0432 42.7436 45.9016 42.6846 45.7482 42.6964C45.583 42.7082 45.4531 42.779 45.3469 42.9206C45.2407 43.0622 45.1935 43.2746 45.2053 43.5578C45.2171 43.8293 45.2879 44.0299 45.4059 44.1597C45.524 44.2895 45.6656 44.3485 45.819 44.3367C45.9724 44.3249 46.1022 44.2541 46.2202 44.1007C46.3264 43.9591 46.3736 43.7467 46.3618 43.4752Z" fill="#BD0077"/>
<path d="M42.8924 42.8143C43.0222 42.6963 43.152 42.6137 43.27 42.5665C43.388 42.5193 43.5296 42.4957 43.6594 42.4839C43.8955 42.4839 44.0725 42.5311 44.2023 42.6491C44.3321 42.7553 44.3911 42.9087 44.4029 43.0857C44.4029 43.1919 44.3793 43.2864 44.3321 43.369C44.2849 43.4516 44.2259 43.5224 44.1551 43.5814C44.0843 43.6404 43.9899 43.6758 43.8955 43.6994C43.8247 43.723 43.7185 43.7348 43.5768 43.7584C43.2818 43.7938 43.0694 43.841 42.9396 43.9C42.9396 43.9472 42.9396 43.9826 42.9396 43.9944C42.9396 44.136 42.975 44.2422 43.0458 44.3013C43.1402 44.3839 43.2818 44.4193 43.4588 44.4193C43.624 44.4193 43.7538 44.3839 43.8365 44.3248C43.9191 44.2658 43.9781 44.1596 44.0135 44.0062L44.3675 44.0416C44.3439 44.195 44.2849 44.3131 44.2141 44.4075C44.1433 44.5019 44.0371 44.5727 43.8955 44.6317C43.7538 44.6789 43.6004 44.7143 43.4116 44.7143C43.2346 44.7143 43.0812 44.7025 42.9632 44.6553C42.8452 44.6199 42.7626 44.5609 42.7154 44.5019C42.6564 44.4429 42.6209 44.3603 42.5973 44.254C42.5855 44.195 42.5738 44.077 42.5738 43.9236L42.562 43.4398C42.5502 43.1093 42.5383 42.8969 42.5265 42.8025C42.5147 42.7199 42.4793 42.6255 42.4321 42.5547L42.8098 42.5429C42.857 42.6255 42.8806 42.7081 42.8924 42.8143ZM42.9396 43.6168C43.0694 43.5578 43.2582 43.5106 43.5296 43.4634C43.6712 43.4398 43.7775 43.4162 43.8365 43.3808C43.8955 43.3572 43.9427 43.31 43.9781 43.2628C44.0135 43.2155 44.0253 43.1565 44.0253 43.0857C44.0253 42.9913 43.9899 42.9087 43.9073 42.8497C43.8365 42.7907 43.7302 42.7553 43.5886 42.7553C43.447 42.7553 43.329 42.7907 43.2228 42.8497C43.1166 42.9087 43.034 42.9913 42.9868 43.0975C42.9514 43.1801 42.9278 43.2982 42.9396 43.4634V43.6168Z" fill="#BD0077"/>
<path d="M41.9011 44.679H41.547L41.5588 43.7939L40.5676 43.7821L40.5558 44.6672H40.2017L40.2253 42.543H40.5793L40.5676 43.4871L41.5588 43.4989L41.5706 42.5548H41.9247L41.9011 44.679Z" fill="#BD0077"/>
<path d="M38.1722 43.251L37.8181 43.192C37.8653 42.9442 37.9716 42.7672 38.1368 42.6256C38.302 42.4958 38.5026 42.4368 38.7268 42.4368C39.0218 42.4486 39.2461 42.5548 39.4113 42.7436C39.5765 42.9442 39.6591 43.2156 39.6473 43.5697C39.6355 43.7939 39.5883 43.9945 39.5057 44.1715C39.4231 44.3485 39.3051 44.4666 39.1399 44.5492C38.9864 44.6318 38.8094 44.6672 38.6324 44.6554C38.3964 44.6436 38.2194 44.5846 38.0778 44.4547C37.9361 44.3367 37.8535 44.1597 37.8181 43.9473L38.1722 43.9119C38.1958 44.0535 38.2548 44.1597 38.3374 44.2423C38.42 44.3131 38.5144 44.3603 38.6442 44.3603C38.8212 44.3721 38.9746 44.3131 39.0926 44.1833C39.2107 44.0535 39.2697 43.8529 39.2815 43.5697C39.2933 43.2864 39.2461 43.074 39.1399 42.9442C39.0336 42.8144 38.892 42.7436 38.715 42.7318C38.5734 42.7318 38.4554 42.7672 38.361 42.8498C38.2666 42.9442 38.1958 43.074 38.1722 43.251Z" fill="#BD0077"/>
<path d="M36.0123 45.2806L35.6583 45.257L35.7291 44.2422C35.6465 44.3248 35.5639 44.3838 35.4695 44.4192C35.3751 44.4546 35.2807 44.4664 35.1745 44.4664C34.9266 44.4428 34.7378 44.3248 34.5962 44.1123C34.4664 43.8881 34.4074 43.6285 34.431 43.3099C34.4546 42.9794 34.549 42.7198 34.726 42.531C34.903 42.3422 35.1036 42.2478 35.3397 42.2714C35.4223 42.2714 35.4931 42.295 35.5757 42.3304C35.6583 42.3658 35.7409 42.4366 35.8471 42.5428L35.9179 41.5515L36.272 41.5751L36.2012 42.5664C36.2838 42.4956 36.3664 42.4484 36.449 42.413C36.5434 42.3776 36.6378 42.3658 36.7322 42.3776C36.9564 42.3894 37.1452 42.5074 37.2868 42.708C37.4403 42.9204 37.4993 43.2037 37.4757 43.5577C37.4521 43.8645 37.3577 44.1123 37.1924 44.313C37.0272 44.5136 36.8148 44.5962 36.567 44.5844C36.4608 44.5726 36.3664 44.549 36.2838 44.5018C36.2011 44.4546 36.1303 44.3838 36.0713 44.2894L36.0123 45.2806ZM35.7881 43.3807C35.8117 43.062 35.7881 42.8496 35.7055 42.7316C35.6229 42.6136 35.5167 42.5546 35.3869 42.5428C35.2453 42.531 35.1154 42.59 34.9974 42.7198C34.8794 42.8496 34.8204 43.0502 34.7968 43.3335C34.7732 43.6049 34.8086 43.8055 34.8912 43.9471C34.9738 44.0887 35.0919 44.1596 35.2453 44.1714C35.4105 44.1832 35.5285 44.1242 35.6229 43.9943C35.7173 43.8527 35.7645 43.6521 35.7881 43.3807ZM37.1334 43.5223C37.157 43.2273 37.1216 43.003 37.0272 42.8614C36.9328 42.7198 36.8148 42.649 36.6732 42.6372C36.5198 42.6254 36.4018 42.6844 36.3074 42.8024C36.2248 42.9322 36.1657 43.1211 36.1421 43.3807C36.1185 43.6639 36.1421 43.8763 36.213 44.0179C36.2838 44.1595 36.4018 44.2422 36.567 44.254C36.7086 44.2658 36.8384 44.2068 36.9446 44.0769C37.0508 43.9589 37.1098 43.7701 37.1334 43.5223Z" fill="#BD0077"/>
<path d="M34.0416 43.239C33.9944 43.6284 33.8528 43.9117 33.6168 44.0651C33.4162 44.1949 33.192 44.2539 32.9323 44.2185C32.6373 44.1831 32.4131 44.0651 32.2479 43.8527C32.0827 43.6402 32.0237 43.3688 32.0591 43.0384C32.0945 42.767 32.1535 42.5546 32.2597 42.4129C32.3541 42.2713 32.4957 42.1533 32.6609 42.0943C32.8261 42.0235 33.0032 41.9999 33.1802 42.0235C33.4752 42.0589 33.6994 42.1769 33.8646 42.3893C34.018 42.6017 34.077 42.885 34.0416 43.239ZM33.6758 43.2036C33.7112 42.9322 33.6758 42.7198 33.5696 42.5782C33.4634 42.4247 33.3218 42.3421 33.1448 42.3303C32.9677 42.3067 32.8143 42.3657 32.6845 42.4837C32.5547 42.6018 32.4721 42.8024 32.4367 43.0856C32.4013 43.3452 32.4485 43.5458 32.5429 43.6993C32.6491 43.8527 32.7907 43.9353 32.9559 43.9471C33.133 43.9707 33.2864 43.9117 33.428 43.7937C33.5696 43.6756 33.6404 43.4632 33.6758 43.2036Z" fill="#BD0077"/>
<path d="M31.7994 41.0913L31.3746 43.9944L31.056 43.9472L31.0914 43.6757C30.9969 43.7702 30.9025 43.841 30.7963 43.8764C30.6901 43.9118 30.5721 43.9236 30.4305 43.9C30.2535 43.8764 30.1001 43.8056 29.9821 43.6875C29.864 43.5695 29.7696 43.4279 29.7342 43.2509C29.6988 43.0739 29.6752 42.8851 29.7106 42.6845C29.746 42.472 29.805 42.2832 29.9112 42.118C30.0175 41.9528 30.1473 41.8466 30.3007 41.7758C30.4659 41.705 30.6193 41.6814 30.7845 41.705C30.9025 41.7168 31.0087 41.764 31.0914 41.823C31.174 41.882 31.2448 41.9646 31.292 42.0472L31.4454 41.0205L31.7994 41.0913ZM31.2094 42.8851C31.2448 42.6137 31.2212 42.413 31.1386 42.2596C31.0442 42.118 30.9261 42.0354 30.7727 42.0118C30.6193 41.9882 30.4659 42.0354 30.3361 42.1534C30.2063 42.2714 30.1119 42.472 30.0765 42.7553C30.0411 43.0267 30.0647 43.2273 30.1591 43.3807C30.2535 43.5341 30.3715 43.6167 30.5249 43.6403C30.6783 43.664 30.8199 43.6167 30.9615 43.4869C31.1032 43.3571 31.174 43.1565 31.2094 42.8851Z" fill="#BD0077"/>
<path d="M28.9673 43.6285L28.4127 43.5223L28.1766 41.7522L27.2561 43.3099L26.7487 43.2155L27.1381 41.1267L27.4922 41.1975L27.1853 42.8733L28.1176 41.3037L28.4363 41.3627L28.6959 43.2273L29.0263 41.4689L29.3685 41.5279L28.9673 43.6285Z" fill="#BD0077"/>
<path d="M25.1202 40.9497C25.2736 40.8671 25.4152 40.8199 25.545 40.7963C25.6748 40.7727 25.8046 40.7845 25.9463 40.8199C26.1705 40.8671 26.3357 40.9615 26.4301 41.1032C26.5245 41.2448 26.5599 41.3982 26.5127 41.5752C26.4891 41.6814 26.4419 41.764 26.3829 41.8348C26.3121 41.9056 26.2413 41.9646 26.1587 42C26.0761 42.0354 25.9817 42.0472 25.8755 42.059C25.8047 42.059 25.6984 42.059 25.5568 42.0354C25.2618 42 25.0494 42 24.9078 42.0118C24.896 42.059 24.8842 42.0944 24.8842 42.1062C24.8488 42.2479 24.8606 42.3541 24.9196 42.4367C24.9904 42.5311 25.1202 42.6019 25.2972 42.6491C25.4624 42.6845 25.5922 42.6845 25.6866 42.6491C25.7811 42.6137 25.8637 42.5193 25.9345 42.3777L26.2649 42.5075C26.2059 42.6491 26.1233 42.7553 26.0289 42.8261C25.9345 42.8969 25.8164 42.9441 25.6748 42.9677C25.5332 42.9913 25.368 42.9795 25.191 42.9323C25.014 42.8969 24.8724 42.8379 24.778 42.7671C24.6717 42.6963 24.6127 42.6255 24.5655 42.5547C24.5301 42.4839 24.5065 42.3895 24.5065 42.2951C24.5065 42.2361 24.5301 42.118 24.5655 41.9646L24.6717 41.4926C24.7425 41.1622 24.7898 40.9615 24.7898 40.8671C24.7898 40.7727 24.778 40.6901 24.7544 40.5957L25.1202 40.6783C25.1202 40.7609 25.132 40.8553 25.1202 40.9497ZM24.9668 41.7404C25.1084 41.7168 25.309 41.7168 25.5686 41.7404C25.722 41.7522 25.8282 41.7522 25.8873 41.7404C25.9581 41.7286 26.0053 41.705 26.0525 41.6578C26.0997 41.6106 26.1233 41.5634 26.1351 41.5044C26.1587 41.41 26.1351 41.3274 26.0879 41.2448C26.0289 41.1622 25.9345 41.1149 25.7928 41.0795C25.663 41.0441 25.5332 41.0559 25.4152 41.0913C25.2972 41.1267 25.2028 41.1858 25.132 41.2802C25.073 41.351 25.0258 41.469 24.9904 41.6224L24.9668 41.7404Z" fill="#BD0077"/>
<path d="M23.6805 42.5194L23.3382 42.425L23.8103 40.6666L22.8544 40.407L22.3824 42.1653L22.0401 42.0709L22.5122 40.3126L22.2879 40.2536L22.524 39.3921L22.8072 39.4747L22.6538 40.0529L24.2469 40.4778L23.6805 42.5194Z" fill="#BD0077"/>
<path d="M21.1787 42.236L21.0607 42.6373L20.7185 42.5311L20.8365 42.1298L21.1787 42.236ZM21.8986 39.8286L21.2849 41.8584L20.9427 41.7522L21.5563 39.7224L21.8986 39.8286Z" fill="#BD0077"/>
<path d="M18.6885 41.0204L19.3612 39.0024L19.7034 39.1205L19.4438 39.9111L19.6444 39.9819C19.7624 40.0173 19.8568 40.0409 19.9276 40.0291C19.9985 40.0173 20.1165 39.9465 20.2817 39.8167L20.7301 39.4745L21.155 39.6161L20.6121 40.0409C20.4469 40.1708 20.3053 40.2297 20.1873 40.2061C20.3761 40.3006 20.4941 40.4186 20.5531 40.5602C20.6121 40.7018 20.6121 40.8552 20.5649 40.9968C20.5059 41.1738 20.3997 41.2918 20.2345 41.3627C20.0693 41.4335 19.8804 41.4217 19.6444 41.3509L18.6885 41.0204ZM19.1252 40.8552L19.609 41.0204C19.8096 41.0912 19.9513 41.103 20.0339 41.0558C20.1165 41.0086 20.1637 40.9496 20.1991 40.867C20.2345 40.749 20.2227 40.6428 20.1519 40.5602C20.0811 40.4776 19.9394 40.395 19.7152 40.3242L19.3376 40.1943L19.1252 40.8552Z" fill="#BD0077"/>
<path d="M16.2105 38.9317C16.0453 39.2857 15.8329 39.5099 15.5497 39.5925C15.3137 39.6633 15.0895 39.6397 14.8416 39.5335C14.5702 39.4155 14.3932 39.2267 14.3106 38.9789C14.2162 38.7311 14.2398 38.4478 14.3814 38.141C14.4876 37.8932 14.6174 37.7162 14.759 37.5982C14.9006 37.4919 15.054 37.4211 15.2311 37.4093C15.4081 37.3975 15.5851 37.4211 15.7503 37.5038C16.0217 37.6218 16.1987 37.8106 16.2932 38.0584C16.3876 38.318 16.3522 38.6131 16.2105 38.9317ZM15.8683 38.7783C15.9745 38.5304 16.0099 38.318 15.9509 38.1528C15.9037 37.9758 15.7857 37.8578 15.6205 37.787C15.4553 37.7162 15.2901 37.7162 15.1249 37.787C14.9596 37.8578 14.818 38.023 14.7118 38.2826C14.6056 38.5186 14.582 38.7311 14.6292 38.8963C14.6882 39.0733 14.7944 39.1913 14.9478 39.2621C15.1131 39.3329 15.2783 39.3329 15.4435 39.2621C15.6205 39.1913 15.7621 39.0261 15.8683 38.7783Z" fill="#BD0077"/>
<path d="M12.8001 36.9965L12.5051 36.7958C12.6467 36.5952 12.8237 36.4772 13.0361 36.4182C13.2367 36.371 13.4491 36.3946 13.6498 36.5008C13.9094 36.6306 14.0746 36.8194 14.1454 37.0791C14.2162 37.3269 14.169 37.6101 14.0038 37.9287C13.8976 38.1294 13.7678 38.2946 13.6262 38.4126C13.4845 38.5306 13.3193 38.5896 13.1423 38.6014C12.9653 38.6014 12.8001 38.566 12.6349 38.4834C12.4342 38.3772 12.2926 38.2356 12.21 38.0703C12.1274 37.9051 12.1274 37.7045 12.1864 37.5039L12.5168 37.6219C12.4814 37.7635 12.4815 37.8815 12.5287 37.9877C12.5759 38.094 12.6467 38.1648 12.7529 38.2238C12.9181 38.3064 13.0715 38.3182 13.2367 38.2474C13.4019 38.1884 13.5435 38.0231 13.6734 37.7753C13.8032 37.5275 13.8504 37.3151 13.815 37.1499C13.7796 36.9847 13.6852 36.8666 13.5199 36.784C13.3901 36.725 13.2721 36.7014 13.1423 36.7368C13.0243 36.7486 12.9063 36.843 12.8001 36.9965Z" fill="#BD0077"/>
<path d="M11.4429 37.7871L10.7349 37.3623C10.5579 37.2561 10.4398 37.1617 10.369 37.0908C10.2982 37.02 10.2628 36.9138 10.2392 36.7958C10.2274 36.6778 10.251 36.5716 10.31 36.4654C10.3572 36.3828 10.428 36.312 10.4989 36.2648C10.5697 36.2176 10.6641 36.194 10.7585 36.194C10.6877 36.1113 10.6523 36.017 10.6405 35.9107C10.6287 35.7927 10.6523 35.6865 10.7231 35.5803C10.8411 35.4151 10.9709 35.3207 11.1361 35.3089C11.3013 35.2971 11.4901 35.3443 11.7026 35.4741L12.5286 35.9579L11.4429 37.7871ZM11.5846 36.8312L11.2541 36.6306C11.1243 36.548 11.0299 36.5008 10.9709 36.489C10.9119 36.4772 10.8529 36.4772 10.7939 36.489C10.7349 36.5126 10.6759 36.548 10.6405 36.607C10.5815 36.7014 10.5815 36.7958 10.6287 36.8666C10.6759 36.9492 10.7821 37.0318 10.9473 37.1262L11.2895 37.3269L11.5846 36.8312ZM12.0684 36.0288L11.6672 35.7809C11.4901 35.6747 11.3603 35.6275 11.2659 35.6275C11.1715 35.6275 11.1007 35.6747 11.0417 35.7809C11.0063 35.8399 10.9945 35.8989 11.0063 35.9815C11.0181 36.0524 11.0417 36.1114 11.1007 36.1586C11.1479 36.2058 11.2423 36.2766 11.3839 36.3474L11.7616 36.5716L12.0684 36.0288Z" fill="#BD0077"/>
<path d="M9.22427 36.8783L9.00004 37.2205L8.70502 37.0199L8.92924 36.6777L9.22427 36.8783ZM10.6168 34.7895L9.43668 36.5597L9.14165 36.359L10.3218 34.5889L10.6168 34.7895Z" fill="#BD0077"/>
<path d="M8.69325 36.064L7.31252 35.0373L7.48953 34.8013L8.03238 35.2143L9.11808 33.751L9.40131 33.9634L8.3156 35.4267L8.87026 35.8398L8.69325 36.064Z" fill="#BD0077"/>
<path d="M6.87596 34.6833L6.60453 34.4473L7.19458 33.7864L6.45113 33.1256L5.86108 33.7864L5.58965 33.5504L6.99397 31.9573L7.26539 32.1933L6.63994 32.9014L7.3834 33.5622L8.00886 32.8542L8.28029 33.0902L6.87596 34.6833Z" fill="#BD0077"/>
<path d="M5.02308 32.9841L4.77526 32.7126L5.38893 32.158L5.08209 31.8158C4.88147 31.5915 4.77527 31.3909 4.75167 31.1903C4.72806 30.9897 4.78707 30.8245 4.94048 30.6947C5.07029 30.5767 5.22371 30.5177 5.41252 30.5413C5.60134 30.5531 5.79016 30.6711 5.97898 30.8953L6.58083 31.5561L5.02308 32.9841ZM6.13238 31.4971L5.87277 31.2139C5.71935 31.0487 5.58954 30.9425 5.48333 30.9071C5.37712 30.8717 5.28271 30.8953 5.1883 30.9779C5.11749 31.0369 5.08209 31.1195 5.08209 31.2257C5.08209 31.3319 5.15289 31.4735 5.31811 31.6505L5.60134 31.9692L6.13238 31.4971Z" fill="#BD0077"/>
<path d="M4.3622 30.6709C4.04358 30.8951 3.73676 30.9659 3.45353 30.8951C3.21751 30.8361 3.02869 30.6945 2.87528 30.4821C2.71006 30.2461 2.65106 29.9865 2.69826 29.7268C2.74546 29.4672 2.91067 29.243 3.1939 29.0424C3.41812 28.889 3.61875 28.7946 3.79576 28.771C3.97278 28.7474 4.13798 28.7827 4.3032 28.8536C4.46841 28.9362 4.59823 29.0542 4.70444 29.1958C4.86965 29.4436 4.92866 29.6914 4.88145 29.9511C4.83425 30.2343 4.65723 30.4703 4.3622 30.6709ZM4.16159 30.3641C4.38581 30.2107 4.51563 30.0455 4.56283 29.8684C4.61004 29.6914 4.57462 29.538 4.48022 29.3846C4.37401 29.243 4.2324 29.1604 4.05538 29.1368C3.87836 29.1132 3.67775 29.184 3.44173 29.3492C3.22931 29.5026 3.0995 29.656 3.05229 29.833C3.00509 30.0101 3.04048 30.1635 3.13489 30.3169C3.2411 30.4703 3.38273 30.5529 3.55974 30.5647C3.73676 30.5883 3.93737 30.5175 4.16159 30.3641Z" fill="#BD0077"/>
<path d="M2.02564 29.0072L1.47098 27.9215L1.73061 27.7917L2.12004 28.5587L3.74859 27.7327L3.9138 28.0513L2.02564 29.0072Z" fill="#BD0077"/>
<path d="M2.32047 27.2604C1.94283 27.3784 1.636 27.3666 1.38818 27.225C1.17576 27.107 1.03414 26.9182 0.951533 26.6704C0.857125 26.3989 0.88073 26.1393 0.99874 25.9033C1.11675 25.6673 1.34097 25.502 1.6596 25.3958C1.91922 25.3132 2.13164 25.2778 2.30865 25.3132C2.48567 25.3368 2.63909 25.4194 2.7689 25.5375C2.89871 25.6555 2.99312 25.8089 3.05213 25.9859C3.14653 26.2691 3.13473 26.5287 3.00492 26.7648C2.87511 27.0008 2.6509 27.1424 2.32047 27.2604ZM2.20246 26.9064C2.46208 26.8238 2.63908 26.7058 2.72169 26.5405C2.8161 26.3871 2.8279 26.2219 2.7689 26.0567C2.70989 25.8915 2.60369 25.7617 2.43848 25.7027C2.27326 25.6319 2.06084 25.6437 1.78942 25.7263C1.5416 25.8089 1.37638 25.9269 1.28197 26.0803C1.18756 26.2337 1.17576 26.3989 1.23476 26.5641C1.29377 26.7294 1.39998 26.8592 1.5652 26.93C1.73041 27.0008 1.94283 26.989 2.20246 26.9064Z" fill="#BD0077"/>
<path d="M1.81323 20.888L1.89584 20.5457C2.13186 20.6047 2.30888 20.7228 2.43869 20.8998C2.55671 21.0768 2.6039 21.2774 2.5803 21.5016C2.5449 21.7848 2.42689 22.0091 2.22627 22.1743C2.01385 22.3277 1.74243 22.3867 1.3884 22.3513C1.16418 22.3277 0.963561 22.2687 0.798347 22.1743C0.633132 22.0799 0.515122 21.9501 0.444315 21.7849C0.373509 21.6196 0.349903 21.4544 0.373505 21.2656C0.397107 21.0414 0.479714 20.8526 0.609526 20.7228C0.739337 20.5929 0.916348 20.5103 1.12877 20.4985L1.14058 20.8526C0.998967 20.8762 0.880954 20.9234 0.798347 20.9942C0.715739 21.065 0.668534 21.1712 0.656733 21.2892C0.633131 21.4662 0.692134 21.6196 0.810145 21.7495C0.928155 21.8793 1.12877 21.9501 1.4002 21.9855C1.68342 22.0209 1.89584 21.9855 2.03746 21.8911C2.17907 21.7967 2.26168 21.655 2.27348 21.4898C2.28528 21.3482 2.26167 21.2302 2.17906 21.124C2.12006 21.006 1.99025 20.9352 1.81323 20.888Z" fill="#BD0077"/>
<path d="M2.474 18.7637L2.62742 18.4214C2.81624 18.5394 2.94604 18.6929 3.01685 18.8817C3.08765 19.0705 3.07586 19.2829 3.00505 19.5189C2.91064 19.814 2.74543 20.0264 2.50941 20.1326C2.27339 20.2506 1.99016 20.2506 1.65973 20.1562C1.3175 20.05 1.08148 19.8848 0.951664 19.6487C0.821853 19.4127 0.798253 19.1531 0.880861 18.8817C0.963468 18.6102 1.12868 18.4214 1.3647 18.3034C1.60072 18.1854 1.88395 18.1854 2.22618 18.2916C2.24978 18.3034 2.27339 18.3034 2.3206 18.327L1.84856 19.8376C2.07277 19.8966 2.26158 19.8848 2.415 19.814C2.56841 19.7432 2.67462 19.6133 2.72182 19.4481C2.75722 19.3183 2.75722 19.2003 2.72182 19.0941C2.68642 18.9643 2.60381 18.8581 2.474 18.7637ZM1.56533 19.7077L1.91936 18.5748C1.74234 18.5394 1.60073 18.5394 1.49452 18.5866C1.32931 18.6575 1.22309 18.7755 1.16409 18.9525C1.11688 19.1059 1.12869 19.2593 1.1995 19.4009C1.2703 19.5425 1.38831 19.6487 1.56533 19.7077Z" fill="#BD0077"/>
<path d="M4.12623 18.6102L1.54179 17.2295L1.69521 16.9345L1.94303 17.0643C1.88403 16.9463 1.84863 16.8283 1.84863 16.7221C1.84863 16.6159 1.88403 16.4978 1.94303 16.368C2.02564 16.2028 2.14365 16.0848 2.29706 16.014C2.45048 15.9314 2.6157 15.9078 2.79272 15.9196C2.96973 15.9314 3.15855 15.9904 3.33556 16.0848C3.52438 16.191 3.67779 16.309 3.79581 16.4624C3.91382 16.6159 3.97282 16.7811 3.98462 16.9463C3.99642 17.1233 3.96101 17.2767 3.89021 17.4301C3.8312 17.5363 3.76039 17.619 3.66598 17.678C3.57157 17.737 3.48898 17.7724 3.38277 17.796L4.29144 18.2798L4.12623 18.6102ZM2.6393 17.4419C2.87532 17.5717 3.08773 17.6189 3.25295 17.5835C3.41816 17.5481 3.53618 17.4655 3.61879 17.3239C3.6896 17.1823 3.70139 17.0289 3.63059 16.8637C3.55978 16.6985 3.40637 16.545 3.15855 16.4152C2.92252 16.2854 2.7101 16.2382 2.54488 16.2736C2.37967 16.309 2.24986 16.3916 2.17905 16.5332C2.10825 16.6631 2.10825 16.8165 2.17905 16.9935C2.24986 17.1587 2.40328 17.3121 2.6393 17.4419Z" fill="#BD0077"/>
<path d="M4.85802 14.6806L5.11764 14.4092C5.25925 14.5862 5.33007 14.775 5.33007 14.9756C5.33007 15.1763 5.25926 15.3769 5.10584 15.5657C4.91703 15.8135 4.6928 15.9551 4.43318 15.9787C4.17355 16.0141 3.90214 15.9197 3.63071 15.7073C3.34749 15.4949 3.18226 15.2471 3.13506 14.9874C3.08786 14.7278 3.15867 14.4682 3.33569 14.244C3.5127 14.0198 3.72512 13.8899 3.98474 13.8663C4.24437 13.8427 4.51579 13.9372 4.79902 14.1378C4.81082 14.1496 4.84622 14.1732 4.86982 14.1968L3.91394 15.4595C4.10276 15.5893 4.29157 15.6483 4.45679 15.6247C4.622 15.6011 4.76361 15.5185 4.86982 15.3887C4.95243 15.2825 4.98783 15.1763 4.98783 15.0582C4.98783 14.9402 4.94063 14.8104 4.85802 14.6806ZM3.67792 15.2707L4.39778 14.3266C4.24437 14.2322 4.11455 14.185 3.99654 14.1968C3.81953 14.2086 3.67792 14.2794 3.55991 14.4328C3.4655 14.5626 3.4183 14.7042 3.4419 14.8694C3.4537 15.011 3.53631 15.1527 3.67792 15.2707Z" fill="#BD0077"/>
<path d="M4.55104 12.8277L5.58954 11.7656L6.89945 13.0401L7.06467 12.8749L7.70193 13.5004L7.4895 13.7128L7.06467 13.288L5.89636 14.4799L6.3212 14.9047L6.10879 15.1171L5.47153 14.4917L5.60134 14.3619C5.54233 13.937 5.1883 13.4296 4.55104 12.8277ZM4.97589 12.8159C5.44793 13.3116 5.74295 13.7482 5.84916 14.114L6.65163 13.2998L5.55413 12.2259L4.97589 12.8159Z" fill="#BD0077"/>
<path d="M6.8168 12.0726C6.56898 11.7657 6.46277 11.4707 6.50998 11.1875C6.54538 10.9515 6.67519 10.7508 6.87581 10.5856C7.10002 10.3968 7.34784 10.326 7.60746 10.3496C7.86709 10.385 8.11491 10.5266 8.32732 10.7862C8.50434 10.9987 8.61056 11.1875 8.64596 11.3645C8.68137 11.5415 8.66956 11.7067 8.59875 11.8719C8.52795 12.0371 8.43355 12.1788 8.28013 12.2968C8.05591 12.4856 7.80808 12.5682 7.53666 12.5328C7.28884 12.5092 7.04102 12.3558 6.8168 12.0726ZM7.10003 11.8483C7.27704 12.0608 7.44226 12.1788 7.63107 12.2024C7.80809 12.226 7.9615 12.1906 8.10312 12.0726C8.24473 11.9545 8.31553 11.8129 8.31553 11.6359C8.31553 11.4589 8.23293 11.2583 8.05591 11.0459C7.89069 10.8452 7.71368 10.7272 7.53666 10.7036C7.35965 10.68 7.20623 10.7154 7.06462 10.8334C6.92301 10.9515 6.85219 11.0931 6.85219 11.2701C6.84039 11.4353 6.92301 11.6359 7.10003 11.8483Z" fill="#BD0077"/>
<path d="M8.19748 9.6179L8.88195 9.14586C9.04716 9.02785 9.18878 8.95704 9.28318 8.93344C9.38939 8.90983 9.4956 8.90985 9.60181 8.94525C9.70802 8.98065 9.80243 9.05145 9.87324 9.15766C9.93224 9.24027 9.96764 9.32288 9.96764 9.41729C9.97944 9.4999 9.95583 9.5943 9.92043 9.67691C10.0266 9.65331 10.1211 9.6533 10.2273 9.68871C10.3335 9.72411 10.4161 9.79492 10.4869 9.90113C10.5931 10.0781 10.6167 10.2434 10.5577 10.3968C10.5105 10.5502 10.3807 10.7036 10.1683 10.8452L9.37758 11.3881L8.19748 9.6179ZM8.99996 10.149L9.31858 9.93653C9.44839 9.85392 9.53099 9.78312 9.5664 9.73591C9.6018 9.68871 9.62541 9.6297 9.63722 9.5707C9.64902 9.49989 9.63721 9.44088 9.59001 9.39368C9.531 9.29927 9.4484 9.26387 9.35399 9.26387C9.25958 9.27567 9.14156 9.33468 8.97635 9.44089L8.64592 9.66511L8.99996 10.149ZM9.531 10.916L9.92043 10.6446C10.0856 10.5266 10.1919 10.4322 10.2273 10.3496C10.2627 10.267 10.2509 10.1726 10.1919 10.0781C10.1565 10.0191 10.0974 9.98374 10.0266 9.96014C9.95584 9.93653 9.88503 9.93653 9.82603 9.97193C9.75522 9.99554 9.66081 10.0545 9.531 10.149L9.17697 10.3968L9.531 10.916Z" fill="#BD0077"/>
<path d="M10.1683 8.29621L10.4752 8.1192L11.2894 9.51171L11.3248 7.61174L11.6553 7.41113L12.7292 9.24029L12.4223 9.41731L11.6081 8.02478L11.5609 9.91295L11.2304 10.1136L10.1683 8.29621Z" fill="#BD0077"/>
<path d="M12.3397 7.03354L12.6583 6.88014L13.4608 8.52047L14.1925 8.16644L13.39 6.5261L13.7086 6.37269L14.5111 8.01303L15.2546 7.659L14.4521 6.01865L14.7707 5.86523L15.5732 7.50558L15.7856 7.39937L16.175 8.20185L15.9036 8.33166L15.644 7.78881L13.2602 8.95712L12.3397 7.03354Z" fill="#BD0077"/>
<path d="M17.5323 6.7149C17.4497 6.86831 17.3671 6.99812 17.2608 7.08073C17.1664 7.17514 17.0484 7.24595 16.9186 7.29315C16.7062 7.37576 16.5174 7.39935 16.3522 7.34035C16.1987 7.28134 16.0807 7.17514 16.0099 7.00993C15.9745 6.91552 15.9509 6.82111 15.9627 6.7149C15.9745 6.62049 16.0099 6.52607 16.0571 6.45527C16.1043 6.37266 16.1751 6.31366 16.2578 6.24286C16.3168 6.19565 16.4112 6.13664 16.5292 6.07764C16.7888 5.93603 16.9658 5.81802 17.072 5.72361C17.0602 5.6764 17.0484 5.65281 17.0366 5.64101C16.9776 5.5112 16.9068 5.41678 16.8242 5.39317C16.7062 5.35777 16.5646 5.36957 16.3994 5.44038C16.246 5.49939 16.1397 5.582 16.0807 5.6646C16.0335 5.74721 16.0099 5.86522 16.0335 6.01863L15.6913 6.10124C15.6677 5.94782 15.6677 5.81802 15.7031 5.70001C15.7385 5.582 15.8093 5.47578 15.9155 5.38138C16.0217 5.28697 16.1633 5.20436 16.3286 5.13356C16.4938 5.06275 16.6354 5.02734 16.7652 5.02734C16.8832 5.02734 16.9776 5.03914 17.0602 5.08635C17.131 5.12175 17.2018 5.19256 17.2608 5.27516C17.2962 5.32237 17.3434 5.42858 17.4025 5.57019L17.5795 6.01863C17.7093 6.32546 17.7919 6.52608 17.8391 6.59689C17.8863 6.66769 17.9453 6.7385 18.0161 6.7975L17.6739 6.93912C17.6385 6.88012 17.5795 6.80931 17.5323 6.7149ZM17.2018 5.98323C17.0956 6.07763 16.9422 6.19565 16.7062 6.32546C16.5764 6.39627 16.4938 6.46707 16.4466 6.51427C16.3994 6.56148 16.3758 6.62048 16.364 6.67949C16.3522 6.7385 16.364 6.7975 16.3876 6.85651C16.423 6.95091 16.482 7.00992 16.5764 7.03352C16.6708 7.06892 16.777 7.05713 16.9068 6.99813C17.0366 6.95092 17.1428 6.86831 17.2136 6.7739C17.2962 6.6795 17.3316 6.57328 17.3434 6.45527C17.3434 6.36086 17.3199 6.24285 17.2608 6.10124L17.2018 5.98323Z" fill="#BD0077"/>
</svg>
