<svg width="16" height="18" viewBox="0 0 16 18" fill="none" xmlns="http://www.w3.org/2000/svg">
<path d="M12.2336 1.60059L14.5417 3.82315C14.5193 3.85751 14.4956 3.89429 14.4707 3.93317C14.2957 4.20687 14.0631 4.59191 13.8325 5.03716C13.3831 5.90477 12.8953 7.08715 12.9428 8.13194C12.9854 9.06976 13.4695 10.1107 13.8995 10.8726C14.12 11.2634 14.3375 11.6001 14.4999 11.8392C14.5133 11.8588 14.5262 11.8777 14.5388 11.896L12.5181 13.9077C12.42 13.8628 12.3036 13.8142 12.1774 13.7706C11.9944 13.7074 11.7732 13.6486 11.5467 13.6341C11.3232 13.6199 11.0502 13.6463 10.8066 13.802C10.5593 13.9601 10.4211 14.2009 10.3419 14.4133C10.2617 14.6284 10.2257 14.857 10.2096 15.0522C10.1972 15.2014 10.1957 15.3419 10.1984 15.4585L8.14475 16.4808L6.15231 15.4702C6.16137 15.3585 6.16761 15.2261 6.16464 15.0857C6.16051 14.8912 6.13849 14.6615 6.07055 14.4433C6.00332 14.2274 5.87705 13.9789 5.63335 13.8109C5.38995 13.6432 5.11267 13.6132 4.88708 13.6265C4.65875 13.6399 4.43558 13.7001 4.25154 13.7647C4.11613 13.8122 3.99198 13.8656 3.88914 13.9141L1.71506 11.9736C1.72561 11.9585 1.73638 11.9429 1.74747 11.9269C1.91637 11.6821 2.14243 11.3373 2.3706 10.937C2.81538 10.1569 3.31411 9.08897 3.34316 8.12499C3.37502 7.06513 2.84716 5.88134 2.36576 5.0167C2.11861 4.57278 1.8703 4.18977 1.68391 3.91779C1.65744 3.87922 1.63221 3.84275 1.6084 3.8087L3.8255 1.60152C3.86134 1.62557 3.89984 1.65111 3.94075 1.67797C4.21429 1.85741 4.59917 2.09651 5.04497 2.33499C5.91461 2.80022 7.09863 3.30919 8.15209 3.2881C9.15698 3.26804 10.2766 2.76063 11.098 2.3043C11.5189 2.07043 11.8818 1.8382 12.1396 1.66454C12.1726 1.64228 12.204 1.62089 12.2335 1.60066L12.2336 1.60059Z" fill="#E1F4EE" stroke="#EDFAF6" stroke-width="0.5" stroke-miterlimit="22.9256"/>
<path d="M3.7726 1L1 3.76027C1 3.76027 2.93536 6.26238 2.87969 8.11115C2.82901 9.79484 1.09394 12.041 1.09394 12.041L3.81953 14.4738C3.81953 14.4738 4.86417 13.8442 5.37032 14.193C5.8764 14.5418 5.65229 15.7369 5.65229 15.7369L8.14293 17L10.6805 15.7369C10.6805 15.7369 10.5321 14.5282 11.0565 14.193C11.5744 13.862 12.6073 14.4738 12.6073 14.4738L15.1449 11.9474C15.1449 11.9474 13.4808 9.75306 13.4062 8.11122C13.3232 6.28448 15.1449 3.76034 15.1449 3.76034L12.2783 1.00008C12.2783 1.00008 9.909 2.78934 8.14293 2.82464C6.2926 2.86165 3.7726 1.00008 3.7726 1.00008V1Z" stroke="#014631" stroke-width="0.125" stroke-miterlimit="22.9256"/>
<path d="M10.2881 12.0309C10.447 12.0299 10.6059 12.027 10.7648 12.0248C12.3527 12.0027 9.35073 11.8697 9.21392 11.8642C8.98174 11.855 9.07375 11.8288 8.85615 11.7779C8.45377 11.6836 8.40052 11.4415 8.36636 11.0608C8.35427 10.9262 8.17333 10.336 8.44964 10.4315C8.88935 10.5835 8.98299 11.0116 9.08277 11.0122C9.42854 11.0142 9.99105 11.4163 10.4157 11.0099C10.6939 10.6937 9.77317 10.4452 10.1343 10.3155C10.3935 10.2225 10.794 10.523 10.9635 10.7005C11.1735 10.9204 11.2376 11.0413 11.4655 10.7349C12.0161 9.99431 11.8331 10.794 12.2684 10.679C12.4147 10.6403 12.2686 10.5514 12.574 10.6322C12.8376 10.7019 12.7636 10.4256 12.6655 10.2816C12.5362 10.0767 12.5319 9.98682 12.3387 9.82123C12.1863 9.5831 12.4503 9.58924 12.4215 9.3513C12.3876 9.07192 11.9113 8.85067 11.6653 8.81757C11.1086 8.48753 12.208 8.60736 12.5071 7.93327C12.5567 7.8214 12.4897 7.30667 12.4566 7.14078C12.3684 6.86294 12.1618 6.86639 11.9955 6.59363C11.896 6.43033 11.8133 6.48233 11.7572 6.30234C11.6643 6.00454 11.194 6.16611 11.1663 6.02804C11.1505 5.9488 10.9294 5.67507 10.8572 5.65713C10.8086 5.64504 10.2359 5.66145 10.6852 5.57711C10.8431 5.54747 10.9003 5.46352 10.8469 5.3007C10.6783 4.92528 10.2347 5.22366 9.98165 4.94533C9.7156 4.62623 9.71781 4.29235 9.23656 4.35212C8.69737 4.41909 8.82267 3.95933 8.13073 4.29465C7.54289 4.5796 7.69266 4.66988 7.61744 4.75383C7.48494 4.80478 7.38948 4.56166 7.35311 4.46754C7.22609 4.13846 6.95793 4.5182 6.64698 4.54372C6.26254 4.57528 6.07084 4.63707 5.7905 4.92135C5.40491 5.31231 5.54652 5.4947 5.48003 5.58853C5.4475 5.63439 4.75144 6.02037 4.67622 6.04618C4.27797 6.1829 4.11477 5.9724 3.95138 6.54393C3.8727 6.81919 3.86388 6.95235 3.62987 7.13829C3.39376 7.35992 3.46082 7.65369 3.34483 7.97021C3.22375 8.30035 3.51292 8.50538 3.77081 8.65188C4.22309 8.90891 4.38494 8.72029 4.22865 9.4744C4.13146 9.94413 3.43214 10.2558 3.58171 10.6228C3.74903 10.9138 3.78664 10.7224 4.07793 11.0544C4.26847 11.2716 4.80143 10.7518 4.80258 10.7505C4.83107 10.722 4.97969 10.6149 5.00598 10.67C5.06517 10.7944 4.97671 10.7996 5.20602 10.8491C5.31587 10.8728 5.29707 10.6204 5.38773 10.798C5.46804 10.9552 5.57847 10.9255 5.73869 10.9061C6.05578 10.8678 6.21197 10.5879 6.72997 10.6042C7.05061 10.6144 7.16257 10.8325 7.25276 10.5761C7.31522 10.3986 7.37672 10.4003 7.42171 10.5111C7.53934 10.8012 7.44551 11.5045 7.10242 11.699C7.0106 11.7511 6.88645 11.7441 6.78341 11.7636C6.63009 11.7926 6.47994 11.8782 6.31684 11.8893C6.19 11.8978 5.30119 11.9728 5.25802 12.0282C5.31721 12.0484 9.81893 12.0333 10.2882 12.0308L10.2881 12.0309ZM4.09289 6.2467C4.0927 6.24593 4.0928 6.24612 4.09289 6.2467V6.2467ZM10.3835 10.7003C10.3796 10.7003 10.3796 10.7003 10.3835 10.7003V10.7003ZM11.8893 8.37672C11.8893 8.37547 11.8893 8.37547 11.8893 8.37672V8.37672Z" fill="#044B3A"/>
</svg>
