<svg width="32" height="32" viewBox="0 0 32 32" fill="none" xmlns="http://www.w3.org/2000/svg">
<path d="M15.5643 2.38877L3.38779 14.5636C3.13949 14.812 3 15.1488 3 15.5C3 15.8512 3.13949 16.188 3.38779 16.4364L15.5643 28.6119C15.6873 28.7349 15.8333 28.8325 15.994 28.8991C16.1547 28.9657 16.327 29 16.501 29C16.675 29 16.8472 28.9657 17.008 28.8991C17.1687 28.8325 17.3147 28.7349 17.4377 28.6119L29.6122 16.437C29.8605 16.1887 30 15.8519 30 15.5007C30 15.1495 29.8605 14.8127 29.6122 14.5643L17.4371 2.38811C17.3141 2.26507 17.168 2.16746 17.0073 2.10087C16.8466 2.03428 16.6743 2 16.5003 2C16.3264 2 16.1541 2.03428 15.9934 2.10087C15.8326 2.16746 15.6866 2.26507 15.5636 2.38811L15.5643 2.38877Z" stroke="#014631" stroke-width="2" stroke-linejoin="round"/>
<path d="M16.5 10V21M11 15.5H22" stroke="#014631" stroke-width="2" stroke-linecap="round"/>
</svg>
