<svg width="44" height="45" viewBox="0 0 44 45" fill="none" xmlns="http://www.w3.org/2000/svg">
<path d="M9.59641 10.3201C9.93462 9.98202 10.3933 9.79208 10.8715 9.79208C11.3497 9.79208 11.8084 9.98202 12.1466 10.3201L21.6927 19.8663L31.2389 10.3201C31.4052 10.1479 31.6042 10.0105 31.8243 9.91595C32.0443 9.82143 32.281 9.77168 32.5205 9.7696C32.7599 9.76752 32.9974 9.81315 33.2191 9.90383C33.4407 9.99452 33.6421 10.1284 33.8114 10.2978C33.9808 10.4671 34.1147 10.6685 34.2054 10.8901C34.296 11.1118 34.3417 11.3493 34.3396 11.5887C34.3375 11.8282 34.2878 12.0649 34.1932 12.2849C34.0987 12.505 33.9613 12.704 33.7891 12.8703L24.2429 22.4165L33.7891 31.9626C34.1176 32.3027 34.2994 32.7583 34.2953 33.2312C34.2912 33.7041 34.1015 34.1564 33.7671 34.4908C33.4327 34.8252 32.9804 35.0149 32.5075 35.019C32.0346 35.0231 31.579 34.8413 31.2389 34.5128L21.6927 24.9667L12.1466 34.5128C11.8065 34.8413 11.3509 35.0231 10.878 35.019C10.4051 35.0149 9.95277 34.8252 9.61838 34.4908C9.28399 34.1564 9.09431 33.7041 9.0902 33.2312C9.08609 32.7583 9.26788 32.3027 9.59641 31.9626L19.1425 22.4165L9.59641 12.8703C9.2583 12.5321 9.06836 12.0735 9.06836 11.5952C9.06836 11.117 9.2583 10.6583 9.59641 10.3201Z" fill="#014631"/>
</svg>
