<svg aria-hidden="true" style="position: absolute; width: 0; height: 0; overflow: hidden;"
    version="1.1" xmlns="http://www.w3.org/2000/svg" xmlns:xlink="http://www.w3.org/1999/xlink">
    <defs>
        <symbol id="icon-administration" viewBox="0 0 31 32">
            <path fill="#014631" style="fill: var(--color1, #014631)"
                d="M6.531 0.333h18.286c3.607 0 6.531 2.924 6.531 6.531v18.286c0 3.607-2.924 6.531-6.531 6.531h-18.286c-3.607 0-6.531-2.924-6.531-6.531v-18.286c0-3.607 2.924-6.531 6.531-6.531z"></path>
            <path fill="#edfaf6" style="fill: var(--color2, #edfaf6)"
                d="M23.601 12.305c0 0.632-0.251 1.238-0.698 1.684s-1.052 0.698-1.684 0.698c-0.632 0-1.238-0.251-1.684-0.698s-0.698-1.052-0.698-1.684c0-0.632 0.251-1.238 0.698-1.684s1.052-0.698 1.684-0.698c0.632 0 1.237 0.251 1.684 0.698s0.698 1.052 0.698 1.684zM6.3 7.602v4.32h-0.646c-0.029 0-0.058-0.006-0.085-0.017s-0.051-0.027-0.072-0.048c-0.021-0.021-0.037-0.045-0.048-0.072s-0.017-0.056-0.017-0.085v-5.574c0-0.189 0.141-0.342 0.334-0.342h2.856c0.193 0 0.334 0.153 0.334 0.342v0.327h4.416c0.123 0 0.222 0.099 0.222 0.221v1.253h-3.769v-0.328c0-0.188-0.141-0.342-0.334-0.342h-2.855c-0.193 0-0.335 0.156-0.335 0.345z"></path>
            <path fill="#edfaf6" style="fill: var(--color2, #edfaf6)"
                d="M15.33 14.538c0 0.029-0.006 0.058-0.017 0.085s-0.027 0.051-0.048 0.072-0.045 0.037-0.072 0.048c-0.027 0.011-0.056 0.017-0.085 0.016h-7.718c-0.029 0-0.058-0.005-0.085-0.017s-0.051-0.027-0.072-0.048c-0.021-0.021-0.037-0.045-0.048-0.072s-0.017-0.056-0.017-0.085v-5.574c0-0.189 0.141-0.342 0.334-0.342h2.856c0.193 0 0.334 0.153 0.334 0.342v0.327h4.416c0.123 0 0.222 0.099 0.222 0.221v5.027zM11.906 11.364v-1.315h-1.315v1.315h-1.315v1.315h1.315v1.315h1.315v-1.315h1.315v-1.315h-1.315zM23.573 15.3c0.314-0 0.624 0.061 0.914 0.181s0.553 0.296 0.775 0.517c0.222 0.222 0.398 0.485 0.518 0.775s0.182 0.6 0.182 0.914l0.005 8.729h-8.014v-7.236h-0.325l-1.478 2.205c-0.241 0.328-0.729 0.487-1.119 0.487h-3.47c-0.277 0-0.542-0.11-0.738-0.305s-0.306-0.461-0.306-0.737c0-0.575 0.468-1.029 1.044-1.029h3.156l2.189-3.31c0.524-0.801 1.55-1.188 2.376-1.188l4.29-0.003z"></path>
        </symbol>
        <symbol id="icon-arrow-up" viewBox="0 0 32 32">
            <path
                d="M22.505 20.865v-9.903l-0.7-0.7h-9.903v1.4h8.212l-10.338 10.338 0.99 0.99 10.339-10.339-0.001 8.213 1.401 0.001z"></path>
        </symbol>
        <symbol id="icon-close" viewBox="0 0 31 32">
            <path
                d="M6.824 7.339c0.24-0.24 0.567-0.375 0.907-0.375s0.666 0.135 0.907 0.375l6.788 6.788 6.788-6.788c0.118-0.122 0.26-0.22 0.416-0.287s0.325-0.103 0.495-0.104c0.17-0.001 0.339 0.031 0.497 0.095s0.301 0.16 0.421 0.28c0.12 0.12 0.216 0.264 0.28 0.421s0.097 0.327 0.095 0.497c-0.002 0.17-0.037 0.339-0.104 0.495s-0.165 0.298-0.287 0.416l-6.788 6.788 6.788 6.788c0.234 0.242 0.363 0.566 0.36 0.902s-0.138 0.658-0.376 0.896c-0.238 0.238-0.559 0.373-0.896 0.376s-0.66-0.126-0.902-0.36l-6.788-6.788-6.788 6.788c-0.242 0.234-0.566 0.363-0.902 0.36s-0.658-0.138-0.896-0.376c-0.238-0.238-0.373-0.559-0.376-0.896s0.126-0.66 0.36-0.902l6.788-6.788-6.788-6.788c-0.24-0.241-0.375-0.567-0.375-0.907s0.135-0.666 0.375-0.907z"></path>
        </symbol>
        <symbol id="icon-linkedin" viewBox="0 0 32 32">
            <path
                d="M25.437 4.277c0.693 0 1.357 0.275 1.847 0.765s0.765 1.154 0.765 1.847v18.282c0 0.693-0.275 1.357-0.765 1.847s-1.154 0.765-1.847 0.765h-18.282c-0.693 0-1.357-0.275-1.847-0.765s-0.765-1.154-0.765-1.847v-18.282c0-0.693 0.275-1.357 0.765-1.847s1.154-0.765 1.847-0.765h18.282zM24.784 24.518v-6.921c0-1.129-0.449-2.212-1.247-3.010s-1.881-1.247-3.010-1.247c-1.11 0-2.403 0.679-3.030 1.698v-1.45h-3.643v10.93h3.643v-6.438c0-1.006 0.81-1.828 1.815-1.828 0.485 0 0.95 0.193 1.293 0.535s0.536 0.808 0.536 1.293v6.438h3.643zM9.61 11.538c0.582 0 1.14-0.231 1.551-0.643s0.643-0.97 0.643-1.551c0-1.214-0.979-2.207-2.194-2.207-0.585 0-1.147 0.233-1.561 0.646s-0.646 0.975-0.646 1.561c0 1.214 0.992 2.194 2.207 2.194zM11.425 24.518v-10.93h-3.617v10.93h3.617z"></path>
        </symbol>
        <symbol id="icon-attention" viewBox="0 0 32 32">
            <path
                d="M16.5003 29.8366C18.2516 29.8389 19.9861 29.495 21.6041 28.8248C23.2221 28.1546 24.6916 27.1712 25.9283 25.9313C27.1683 24.6946 28.1517 23.225 28.8219 21.607C29.4921 19.989 29.8359 18.2546 29.8337 16.5033C29.8359 14.752 29.492 13.0175 28.8218 11.3996C28.1516 9.78158 27.1683 8.312 25.9283 7.07527C24.6916 5.83528 23.2221 4.85193 21.6041 4.18172C19.9861 3.51151 18.2516 3.16766 16.5003 3.16993C14.7491 3.1677 13.0146 3.51157 11.3966 4.18177C9.77865 4.85198 8.30907 5.83531 7.07234 7.07527C5.83238 8.312 4.84905 9.78158 4.17884 11.3996C3.50864 13.0175 3.16477 14.752 3.167 16.5033C3.16473 18.2546 3.50859 19.989 4.17879 21.607C4.849 23.225 5.83236 24.6946 7.07234 25.9313C8.30907 27.1712 9.77865 28.1546 11.3966 28.8248C13.0146 29.495 14.7491 29.8388 16.5003 29.8366Z"
                stroke="#014631" stroke-width="2.5" stroke-linejoin="round" />
            <path fill-rule="evenodd" clip-rule="evenodd"
                d="M16.5007 25.1693C16.9427 25.1693 17.3666 24.9937 17.6792 24.6811C17.9917 24.3686 18.1673 23.9446 18.1673 23.5026C18.1673 23.0606 17.9917 22.6367 17.6792 22.3241C17.3666 22.0115 16.9427 21.8359 16.5007 21.8359C16.0586 21.8359 15.6347 22.0115 15.3221 22.3241C15.0096 22.6367 14.834 23.0606 14.834 23.5026C14.834 23.9446 15.0096 24.3686 15.3221 24.6811C15.6347 24.9937 16.0586 25.1693 16.5007 25.1693Z"
                fill="#014631" />
            <path d="M16.5 8.50391V19.1706" stroke="#014631" stroke-width="2.5"
                stroke-linecap="round" stroke-linejoin="round" />
        </symbol>
        <symbol id="icon-attention1" viewBox="0 0 32 32">
            <path
                d="M16.181 29.6589C17.9323 29.6611 19.6668 29.3173 21.2847 28.6471C22.9027 27.9769 24.3723 26.9935 25.609 25.7535C26.849 24.5168 27.8323 23.0472 28.5025 21.4293C29.1728 19.8113 29.5166 18.0768 29.5143 16.3255C29.5166 14.5743 29.1727 12.8398 28.5025 11.2218C27.8323 9.60385 26.849 8.13427 25.609 6.89753C24.3723 5.65755 22.9027 4.6742 21.2847 4.00399C19.6668 3.33378 17.9323 2.98993 16.181 2.9922C14.4297 2.98997 12.6953 3.33383 11.0773 4.00404C9.45932 4.67425 7.98974 5.65758 6.753 6.89753C5.51305 8.13427 4.52972 9.60385 3.85951 11.2218C3.1893 12.8398 2.84543 14.5743 2.84767 16.3255C2.8454 18.0768 3.18925 19.8113 3.85946 21.4293C4.52967 23.0472 5.51302 24.5168 6.753 25.7535C7.98974 26.9935 9.45932 27.9768 11.0773 28.647C12.6953 29.3172 14.4297 29.6611 16.181 29.6589Z"
                stroke="#EDFAF6" stroke-width="2.5" stroke-linejoin="round" />
            <path fill-rule="evenodd" clip-rule="evenodd"
                d="M16.1813 24.9915C16.6233 24.9915 17.0473 24.8159 17.3598 24.5034C17.6724 24.1908 17.848 23.7669 17.848 23.3249C17.848 22.8828 17.6724 22.4589 17.3598 22.1464C17.0473 21.8338 16.6233 21.6582 16.1813 21.6582C15.7393 21.6582 15.3154 21.8338 15.0028 22.1464C14.6902 22.4589 14.5146 22.8828 14.5146 23.3249C14.5146 23.7669 14.6902 24.1908 15.0028 24.5034C15.3154 24.8159 15.7393 24.9915 16.1813 24.9915Z"
                fill="#EDFAF6" />
            <path d="M16.1807 8.32617V18.9928" stroke="#EDFAF6" stroke-width="2.5"
                stroke-linecap="round" stroke-linejoin="round" />
        </symbol>
        <symbol id="icon-document" viewBox="0 0 32 32">
            <path
                d="M4.053 31.528c-0.939 0-1.742-0.334-2.41-1.002s-1.002-1.472-1.004-2.412v-23.893c0-0.939 0.335-1.742 1.004-2.41s1.472-1.002 2.41-1.004h18.773l8.533 8.533v18.773c0 0.939-0.334 1.742-1.002 2.412s-1.472 1.003-2.412 1.002h-23.893zM7.467 24.701h17.067v-3.413h-17.067v3.413zM7.467 17.874h17.067v-3.413h-17.067v3.413zM21.12 11.047h6.827l-6.827-6.827v6.827zM7.467 11.047h8.533v-3.413h-8.533v3.413z"></path>
        </symbol>
        <symbol id="icon-event" viewBox="0 0 31 32">
            <path fill="#014631" style="fill: var(--color1, #014631)"
                d="M6.531 0.333h18.286c3.607 0 6.531 2.924 6.531 6.531v18.286c0 3.607-2.924 6.531-6.531 6.531h-18.286c-3.607 0-6.531-2.924-6.531-6.531v-18.286c0-3.607 2.924-6.531 6.531-6.531z"></path>
            <path fill="#edfaf6" style="fill: var(--color2, #edfaf6)"
                d="M23.51 9.476c0-0.346-0.138-0.679-0.383-0.924s-0.577-0.383-0.924-0.383h-2.612v-1.306h-1.306v1.306h-5.224v-1.306h-1.306v1.306h-2.612c-0.346 0-0.679 0.138-0.924 0.383s-0.383 0.577-0.383 0.924v13.061c0 0.346 0.138 0.679 0.383 0.924s0.577 0.383 0.924 0.383h2.612v-1.306h-2.612v-13.061h2.612v1.306h1.306v-1.306h5.224v1.306h1.306v-1.306h2.612v3.918h1.306v-3.918z"></path>
            <path fill="#edfaf6" style="fill: var(--color2, #edfaf6)"
                d="M18.939 15.353l1.665 3.225 3.56 0.517-2.612 2.51 0.653 3.544-3.265-1.673-3.265 1.673 0.653-3.544-2.612-2.51 3.657-0.517 1.567-3.225z"></path>
        </symbol>
        <symbol id="icon-facebook" viewBox="0 0 32 32">
            <path
                d="M28.69 16.086c0-7.056-5.727-12.783-12.783-12.783s-12.783 5.727-12.783 12.783c0 6.187 4.397 11.338 10.226 12.527v-8.692h-2.556v-3.835h2.556v-3.196c0-2.467 2.007-4.474 4.474-4.474h3.196v3.835h-2.556c-0.703 0-1.278 0.575-1.278 1.278v2.556h3.835v3.835h-3.835v8.884c6.455-0.639 11.504-6.084 11.504-12.719z"></path>
        </symbol>
        <symbol id="icon-gateway" viewBox="0 0 32 32">
            <path stroke-linejoin="round" stroke-linecap="butt" stroke-miterlimit="4"
                stroke-width="1.9394"
                d="M15.224 3.213l-11.886 11.885c-0.242 0.243-0.379 0.571-0.379 0.914s0.136 0.672 0.379 0.914l11.886 11.886c0.12 0.12 0.263 0.215 0.42 0.28s0.325 0.098 0.495 0.098c0.17 0 0.338-0.033 0.495-0.098s0.299-0.16 0.419-0.28l11.885-11.885c0.242-0.242 0.379-0.571 0.379-0.914s-0.136-0.672-0.379-0.914l-11.885-11.887c-0.12-0.12-0.263-0.215-0.42-0.28s-0.325-0.098-0.495-0.098c-0.17 0-0.338 0.033-0.495 0.098s-0.299 0.16-0.419 0.28l0.001 0.001z"></path>
            <path stroke-linejoin="miter" stroke-linecap="round" stroke-miterlimit="4"
                stroke-width="1.9394" d="M16.028 10.54v10.954M10.551 16.017h10.954"></path>
        </symbol>
        <symbol id="icon-heart" viewBox="0 0 32 32">
            <path
                d="M2.836 4.515c1.728-1.742 4.045-2.761 6.487-2.853s4.828 0.752 6.679 2.36c1.849-1.606 4.232-2.448 6.671-2.358s4.754 1.106 6.482 2.843c1.728 1.738 2.741 4.069 2.837 6.528s-0.733 4.863-2.321 6.732l-11.565 11.697c-0.531 0.536-1.244 0.849-1.995 0.878s-1.485-0.23-2.055-0.725l-0.164-0.152-11.563-11.699c-1.587-1.867-2.416-4.269-2.322-6.727s1.104-4.788 2.829-6.526zM4.942 6.638c-1.218 1.228-1.92 2.882-1.96 4.619s0.584 3.422 1.743 4.706l0.217 0.231 11.059 11.149 7.898-7.966-5.265-5.307-1.579 1.592c-0.838 0.845-1.974 1.32-3.159 1.32s-2.322-0.474-3.16-1.319-1.309-1.99-1.31-3.185c-0-1.195 0.47-2.341 1.308-3.186l3.131-3.158c-1.246-1.002-2.805-1.525-4.399-1.473s-3.116 0.675-4.295 1.756l-0.229 0.219zM17.581 10.884c0.279-0.281 0.658-0.44 1.053-0.44s0.774 0.158 1.053 0.44l6.318 6.37 1.055-1.060c1.238-1.248 1.943-2.934 1.964-4.699s-0.644-3.468-1.852-4.745-2.865-2.027-4.614-2.089c-1.75-0.062-3.454 0.569-4.748 1.757l-0.228 0.219-4.739 4.778c-0.258 0.26-0.413 0.607-0.434 0.974s0.092 0.73 0.318 1.019l0.116 0.131c0.258 0.26 0.602 0.416 0.966 0.438s0.724-0.092 1.010-0.32l0.13-0.117 2.633-2.655z"></path>
        </symbol>
        <symbol id="icon-lifebar" viewBox="0 0 32 32">
            <path
                d="M1.879 23.223v6.909h28.242v-6.909h-28.242zM2.97 24.314h26.061v4.727h-8.303v-3.636h-17.758v-1.091z"></path>
            <path stroke-linejoin="miter" stroke-linecap="butt" stroke-miterlimit="4"
                stroke-width="1.9394"
                d="M10.145 2.086c-3.115 0.036-4.824 3.412-4.806 5.271 0.091 2.867 2.073 4.812 4.533 6.958 2.145 1.867 4.612 3.83 6.115 6.667 0.006-0.006 0.006-0.012 0.012-0.018 0.006 0.006 0.006 0.012 0.012 0.018 1.503-2.836 3.97-4.8 6.115-6.667 2.461-2.145 4.442-4.091 4.533-6.958 0.018-1.859-1.691-5.235-4.806-5.271-2.303-0.030-5.006 1.558-5.855 4.103-0.848-2.545-3.552-4.133-5.855-4.103z"></path>
        </symbol>
        <symbol id="icon-news" viewBox="0 0 32 32">
            <path fill="#014631" style="fill: var(--color1, #014631)"
                d="M6.977 0.327h18.286c3.607 0 6.531 2.924 6.531 6.531v18.286c0 3.607-2.924 6.531-6.531 6.531h-18.286c-3.607 0-6.531-2.924-6.531-6.531v-18.286c0-3.607 2.924-6.531 6.531-6.531z"></path>
            <path fill="#edfaf6" style="fill: var(--color2, #edfaf6)"
                d="M10.025 23.837c-0.479 0-0.889-0.17-1.229-0.511s-0.511-0.751-0.512-1.23v-12.19c0-0.479 0.171-0.889 0.512-1.23s0.751-0.511 1.229-0.512h9.578l4.354 4.354v9.578c0 0.479-0.17 0.889-0.511 1.23s-0.751 0.512-1.23 0.511h-12.191zM11.766 20.354h8.707v-1.742h-8.707v1.742zM11.766 16.871h8.707v-1.741h-8.707v1.741zM18.732 13.388h3.483l-3.483-3.483v3.483zM11.766 13.388h4.354v-1.742h-4.354v1.742z"></path>
        </symbol>
        <symbol id="icon-pagination-arrow-left" viewBox="0 0 32 32">
            <path
                d="M24.531 1.601v28.801c-0.001 0.292-0.062 0.577-0.178 0.827s-0.282 0.452-0.48 0.588c-0.198 0.135-0.421 0.198-0.644 0.181s-0.439-0.114-0.623-0.279l-15.956-14.4c-0.662-0.597-0.662-2.034 0-2.632l15.956-14.4c0.184-0.167 0.4-0.264 0.623-0.283s0.447 0.044 0.645 0.179c0.198 0.136 0.365 0.339 0.481 0.59s0.177 0.537 0.177 0.829z"></path>
        </symbol>
        <symbol id="icon-pagination-arrow-right" viewBox="0 0 32 32">
            <path
                d="M7.301 1.601v28.801c0.001 0.292 0.062 0.577 0.178 0.827s0.282 0.452 0.48 0.588c0.198 0.135 0.421 0.198 0.644 0.181s0.439-0.114 0.623-0.279l15.956-14.4c0.662-0.597 0.662-2.034 0-2.632l-15.956-14.4c-0.184-0.167-0.4-0.264-0.623-0.283s-0.447 0.044-0.645 0.179c-0.199 0.136-0.365 0.339-0.481 0.59s-0.177 0.537-0.177 0.829z"></path>
        </symbol>
        <symbol id="icon-plant" viewBox="0 0 32 32">
            <path
                d="M30.5 5.33c-0.014-0.237-0.114-0.461-0.282-0.629s-0.392-0.269-0.629-0.282c-6.274-0.364-11.311 1.544-13.476 5.118-1.43 2.362-1.428 5.232-0.019 7.968-0.802 0.954-1.388 2.071-1.718 3.273l-1.972-1.979c0.948-1.979 0.912-4.042-0.121-5.756-1.6-2.641-5.293-4.057-9.879-3.788-0.237 0.014-0.461 0.114-0.629 0.282s-0.269 0.392-0.282 0.629c-0.27 4.585 1.147 8.279 3.788 9.879 0.872 0.533 1.873 0.814 2.895 0.815 0.991-0.012 1.967-0.247 2.856-0.687l3.030 3.030v3.475c0 0.257 0.102 0.504 0.284 0.686s0.428 0.284 0.686 0.284 0.504-0.102 0.686-0.284c0.182-0.182 0.284-0.428 0.284-0.686v-3.575c-0.004-1.543 0.521-3.040 1.487-4.242 1.247 0.652 2.631 1.001 4.038 1.018 1.36 0.004 2.696-0.367 3.858-1.074 3.573-2.162 5.486-7.2 5.118-13.474zM6.28 18.386c-1.859-1.126-2.912-3.791-2.886-7.224 3.433-0.029 6.098 1.027 7.224 2.886 0.588 0.97 0.684 2.101 0.298 3.265l-2.959-2.959c-0.183-0.174-0.427-0.27-0.68-0.267s-0.494 0.105-0.673 0.284-0.281 0.42-0.284 0.673c-0.003 0.253 0.092 0.497 0.267 0.68l2.959 2.959c-1.165 0.385-2.295 0.29-3.265-0.298zM24.378 17.147c-1.624 0.983-3.533 1.058-5.473 0.242l6.508-6.509c0.174-0.183 0.27-0.427 0.267-0.68s-0.105-0.494-0.284-0.673c-0.179-0.179-0.42-0.281-0.673-0.284s-0.497 0.092-0.68 0.267l-6.509 6.501c-0.819-1.939-0.745-3.85 0.242-5.473 1.69-2.788 5.697-4.342 10.828-4.222 0.116 5.13-1.435 9.142-4.225 10.832z"></path>
        </symbol>
        <symbol id="icon-repair" viewBox="0 0 32 32">
            <path
                d="M28.869 4.591c0.246 0.426 0.469 0.833 0.668 1.222s0.379 0.781 0.54 1.179 0.275 0.81 0.341 1.236c0.066 0.426 0.109 0.9 0.128 1.42 0 0.748-0.095 1.468-0.284 2.159s-0.464 1.345-0.824 1.96c-0.36 0.615-0.791 1.169-1.293 1.662s-1.056 0.919-1.662 1.278c-0.606 0.36-1.255 0.634-1.946 0.824s-1.416 0.289-2.173 0.298c-0.218 0-0.436-0.009-0.653-0.028s-0.44-0.047-0.668-0.085l-11.449 11.449c-0.455 0.454-0.971 0.8-1.548 1.037s-1.188 0.355-1.832 0.355c-0.653 0-1.269-0.123-1.847-0.369s-1.080-0.587-1.506-1.023c-0.426-0.436-0.767-0.942-1.023-1.52s-0.384-1.193-0.384-1.847c0-0.634 0.118-1.241 0.355-1.818s0.582-1.098 1.037-1.562l11.449-11.449c-0.038-0.218-0.066-0.436-0.085-0.653s-0.028-0.44-0.028-0.668c0-0.748 0.095-1.468 0.284-2.159s0.464-1.345 0.824-1.96c0.36-0.616 0.791-1.17 1.293-1.662s1.056-0.919 1.662-1.278c0.606-0.36 1.255-0.634 1.946-0.824s1.416-0.289 2.173-0.298c0.511 0 0.98 0.038 1.406 0.114s0.843 0.194 1.25 0.355c0.407 0.161 0.8 0.336 1.179 0.526s0.786 0.417 1.222 0.682l-5.596 5.597 1.449 1.449 5.597-5.597zM22.364 16.011c0.881 0 1.705-0.166 2.472-0.497s1.439-0.786 2.017-1.364c0.578-0.578 1.032-1.25 1.364-2.017s0.502-1.596 0.511-2.486c0-0.691-0.114-1.359-0.341-2.003l-5.114 5.099-4.006-4.006 5.099-5.114c-0.644-0.227-1.311-0.341-2.003-0.341-0.881 0-1.705 0.166-2.472 0.497s-1.439 0.786-2.017 1.364c-0.578 0.578-1.032 1.25-1.364 2.017s-0.502 1.596-0.511 2.486c0 0.331 0.028 0.653 0.085 0.966s0.123 0.625 0.199 0.938l-12.145 12.159c-0.275 0.275-0.488 0.592-0.639 0.952s-0.227 0.739-0.227 1.136c0 0.398 0.076 0.777 0.227 1.136s0.365 0.672 0.639 0.938c0.275 0.265 0.587 0.473 0.938 0.625s0.729 0.232 1.136 0.241c0.398 0 0.776-0.076 1.136-0.227s0.677-0.364 0.952-0.639l12.159-12.145c0.313 0.076 0.625 0.142 0.938 0.199s0.634 0.085 0.966 0.085z"></path>
        </symbol>
        <symbol id="icon-select-arrow" viewBox="0 0 32 32">
            <path
                d="M4.697 6.755h22.738c0.23 0.001 0.456 0.064 0.653 0.184s0.357 0.29 0.464 0.494 0.156 0.433 0.142 0.663c-0.014 0.23-0.090 0.452-0.22 0.641l-11.369 16.422c-0.471 0.681-1.606 0.681-2.078 0l-11.369-16.422c-0.132-0.189-0.209-0.411-0.223-0.641s0.035-0.46 0.142-0.664c0.107-0.204 0.268-0.375 0.465-0.495s0.424-0.182 0.654-0.182z"></path>
        </symbol>
        <symbol id="icon-services" viewBox="0 0 31 32">
            <path fill="#014631" style="fill: var(--color1, #014631)"
                d="M6.531 0.333h18.286c3.607 0 6.531 2.924 6.531 6.531v18.286c0 3.607-2.924 6.531-6.531 6.531h-18.286c-3.607 0-6.531-2.924-6.531-6.531v-18.286c0-3.607 2.924-6.531 6.531-6.531z"></path>
            <path fill="#edfaf6" style="fill: var(--color2, #edfaf6)"
                d="M8.189 9.175c1.010-1.010 2.365-1.601 3.793-1.654s2.823 0.436 3.905 1.369c1.081-0.931 2.474-1.42 3.9-1.367s2.78 0.641 3.79 1.649c1.010 1.008 1.603 2.36 1.659 3.786s-0.429 2.82-1.357 3.904l-6.761 6.783c-0.311 0.311-0.727 0.493-1.166 0.509s-0.868-0.134-1.201-0.42l-0.096-0.088-6.761-6.784c-0.928-1.083-1.413-2.476-1.358-3.901s0.646-2.776 1.654-3.785zM9.42 10.406c-0.712 0.712-1.123 1.671-1.146 2.678s0.341 1.984 1.019 2.729l0.127 0.134 6.465 6.465 4.618-4.619-3.078-3.077-0.923 0.923c-0.49 0.49-1.154 0.765-1.847 0.766s-1.357-0.275-1.848-0.765c-0.49-0.49-0.765-1.154-0.766-1.847s0.275-1.357 0.765-1.847l1.83-1.831c-0.728-0.581-1.64-0.884-2.572-0.854s-1.822 0.391-2.511 1.018l-0.134 0.127zM16.809 12.868c0.163-0.163 0.385-0.255 0.616-0.255s0.452 0.092 0.616 0.255l3.694 3.694 0.616-0.615c0.724-0.723 1.136-1.701 1.148-2.725s-0.377-2.011-1.083-2.752c-0.707-0.741-1.675-1.175-2.698-1.211s-2.019 0.33-2.776 1.019l-0.133 0.127-2.771 2.771c-0.151 0.151-0.241 0.352-0.254 0.565s0.054 0.423 0.186 0.591l0.068 0.076c0.151 0.151 0.352 0.241 0.565 0.254s0.423-0.054 0.591-0.186l0.076-0.068 1.539-1.54z"></path>
        </symbol>
        <symbol id="icon-simplethankyou" viewBox="0 0 32 32">
            <path stroke-linejoin="round" stroke-linecap="round" stroke-miterlimit="4"
                stroke-width="1.9394"
                d="M4.041 10.070c-3.872 7.493 10.906 15.942 11.96 15.942 1.157 0 15.825-8.449 11.96-15.942-1.7-2.883-6.141-7.473-11.96 0-3.478-5.049-8.876-5.443-11.96 0z"></path>
        </symbol>
        <symbol id="icon-tracks" viewBox="0 0 32 32">
            <path fill="#014631" style="fill: var(--color1, #014631)"
                d="M6.977 0.327h18.286c3.607 0 6.531 2.924 6.531 6.531v16.327c0 3.607-2.924 6.531-6.531 6.531h-18.286c-3.607 0-6.531-2.924-6.531-6.531v-16.327c0-3.607 2.924-6.531 6.531-6.531z"></path>
            <path fill="#edfaf6" style="fill: var(--color2, #edfaf6)"
                d="M23.086 17.767l-2.622 2.459v-1.498h-2.295c-0.656 0-1.844-0.384-2.336-1.806l-0.656-1.69-0.656-1.767c-0.123-0.423-0.328-0.461-0.41-0.499h-4.958v-1.921h4.999c0.656 0 1.844 0.384 2.336 1.806l0.656 1.69 0.656 1.767c0.123 0.423 0.328 0.461 0.41 0.499h2.254v-1.498l2.622 2.459z"></path>
            <path fill="#edfaf6" style="fill: var(--color2, #edfaf6)"
                d="M14.645 16l-0.082 0.269c-0.123 0.423-0.328 0.461-0.41 0.499h-4.999v1.921h4.999c0.369 0 0.942-0.115 1.434-0.538-0.205-0.307-0.41-0.615-0.533-1.037l-0.41-1.114zM17.677 13.695l0.123-0.307c0.123-0.423 0.328-0.461 0.41-0.499h2.254v1.498l2.622-2.459-2.622-2.459v1.498h-2.295c-0.369 0-0.983 0.154-1.475 0.538 0.246 0.307 0.41 0.653 0.574 1.076l0.41 1.114z"></path>
        </symbol>
        <symbol id="icon-Vector" viewBox="0 0 32 32">
            <path fill="#45b288" style="fill: var(--color1, #45b288)"
                d="M30.514 24.341l0.747-21.88-1.494-1.494-21.88 0.747-0.106 3.094 18.143-0.619-23.621 23.621 2.113 2.113 23.623-23.623-0.622 18.145 3.096-0.104z"></path>
        </symbol>
        <symbol id="icon-Vector-top" viewBox="0 0 41 32">
            <path fill="#fefefe" style="fill: var(--color1, #fefefe)"
                d="M2.304 30.545h34.909c0.353-0.001 0.7-0.098 1.002-0.282s0.549-0.446 0.713-0.759c0.164-0.313 0.24-0.665 0.219-1.018s-0.138-0.693-0.338-0.985l-17.454-25.212c-0.723-1.045-2.465-1.045-3.19 0l-17.455 25.212c-0.202 0.291-0.321 0.631-0.343 0.985s0.053 0.706 0.218 1.020c0.164 0.314 0.411 0.576 0.715 0.759s0.651 0.28 1.005 0.279z"></path>
        </symbol>
    </defs>
    <symbol id="icon-cross" viewBox="0 0 32 32">
        <path
            d="M0.345055 0.359789C0.56606 0.13885 0.865767 0.0147336 1.17827 0.0147336C1.49077 0.0147336 1.79048 0.13885 2.01148 0.359789L8.24939 6.5977L14.4873 0.359789C14.596 0.247228 14.7261 0.157445 14.8698 0.0956803C15.0136 0.0339153 15.1683 0.00140429 15.3248 4.44974e-05C15.4812 -0.0013153 15.6364 0.028503 15.7813 0.0877601C15.9261 0.147017 16.0577 0.234526 16.1683 0.34518C16.279 0.455835 16.3665 0.587419 16.4258 0.732255C16.485 0.877091 16.5148 1.03228 16.5135 1.18876C16.5121 1.34524 16.4796 1.49989 16.4178 1.64367C16.3561 1.78746 16.2663 1.9175 16.1537 2.02622L9.91582 8.26412L16.1537 14.502C16.3684 14.7243 16.4872 15.022 16.4845 15.331C16.4818 15.64 16.3579 15.9356 16.1394 16.1541C15.9209 16.3726 15.6253 16.4966 15.3163 16.4992C15.0073 16.5019 14.7096 16.3831 14.4873 16.1685L8.24939 9.93055L2.01148 16.1685C1.78921 16.3831 1.49151 16.5019 1.18251 16.4992C0.873505 16.4966 0.577918 16.3726 0.359411 16.1541C0.140904 15.9356 0.0169596 15.64 0.0142744 15.331C0.0115892 15.022 0.130378 14.7243 0.345055 14.502L6.58296 8.26412L0.345055 2.02622C0.124116 1.80521 0 1.5055 0 1.193C0 0.880501 0.124116 0.580794 0.345055 0.359789Z" />
    </symbol>
    <symbol id="icon-close" viewBox="0 0 44 45">
        <path d="M9.59641 10.3201C9.93462 9.98202 10.3933 9.79208 10.8715 9.79208C11.3497 9.79208 11.8084 9.98202 12.1466 10.3201L21.6927 19.8663L31.2389 10.3201C31.4052 10.1479 31.6042 10.0105 31.8243 9.91595C32.0443 9.82143 32.281 9.77168 32.5205 9.7696C32.7599 9.76752 32.9974 9.81315 33.2191 9.90383C33.4407 9.99452 33.6421 10.1284 33.8114 10.2978C33.9808 10.4671 34.1147 10.6685 34.2054 10.8901C34.296 11.1118 34.3417 11.3493 34.3396 11.5887C34.3375 11.8282 34.2878 12.0649 34.1932 12.2849C34.0987 12.505 33.9613 12.704 33.7891 12.8703L24.2429 22.4165L33.7891 31.9626C34.1176 32.3027 34.2994 32.7583 34.2953 33.2312C34.2912 33.7041 34.1015 34.1564 33.7671 34.4908C33.4327 34.8252 32.9804 35.0149 32.5075 35.019C32.0346 35.0231 31.579 34.8413 31.2389 34.5128L21.6927 24.9667L12.1466 34.5128C11.8065 34.8413 11.3509 35.0231 10.878 35.019C10.4051 35.0149 9.95277 34.8252 9.61838 34.4908C9.28399 34.1564 9.09431 33.7041 9.0902 33.2312C9.08609 32.7583 9.26788 32.3027 9.59641 31.9626L19.1425 22.4165L9.59641 12.8703C9.2583 12.5321 9.06836 12.0735 9.06836 11.5952C9.06836 11.117 9.2583 10.6583 9.59641 10.3201Z" fill="#014631"/>
    </symbol>
</svg>
    